<svg version="1.1" id="Layer_1" xmlns="http://www.w3.org/2000/svg" xmlns:xlink="http://www.w3.org/1999/xlink" x="0px" y="0px"
	 width="100%" viewBox="0 0 626 626" enable-background="new 0 0 626 626" xml:space="preserve">
<path fill="#FFFFFF" opacity="1.000000" stroke="none" 
	d="
M1.000008,626.000000 
	C1.000000,418.306458 1.000000,210.612946 1.240187,2.379204 
	C1.653583,1.559332 1.826792,1.279666 2.000000,1.000000 
	C209.693527,1.000000 417.387054,1.000000 625.621826,1.239802 
	C626.442017,1.653074 626.721008,1.826545 627.000000,2.000008 
	C627.000000,209.693527 627.000000,417.387054 626.759949,625.620972 
	C626.346619,626.440918 626.173340,626.720459 626.000000,627.000000 
	C418.306458,627.000000 210.612946,627.000000 2.378161,626.760193 
	C1.557948,626.346924 1.278982,626.173462 1.000008,626.000000 
M309.151672,422.841064 
	C308.953186,423.192017 308.754700,423.542969 308.162720,424.079681 
	C307.949860,424.315887 307.883057,424.587952 307.484802,425.374603 
	C305.930939,428.093018 304.377075,430.811432 302.258545,433.953308 
	C299.382355,438.919891 296.506165,443.886444 293.082581,449.225311 
	C286.731415,460.901154 280.380280,472.576996 273.422638,484.457153 
	C271.258636,486.621948 269.094635,488.786743 266.293243,491.119171 
	C264.188934,493.163269 262.084656,495.207336 259.585083,497.292633 
	C259.313019,497.444031 259.214569,497.670807 258.939270,498.385834 
	C258.869080,498.552124 258.798889,498.718445 258.073486,499.003235 
	C255.718109,501.360229 253.362717,503.717194 250.460693,506.457703 
	C246.164124,510.581085 241.867554,514.704468 236.980911,519.084473 
	C229.485565,526.242249 221.990219,533.399963 214.494873,540.557739 
	C214.707443,541.017395 214.920013,541.477051 215.132568,541.936707 
	C216.817337,541.936707 218.502090,541.936707 221.031357,542.005676 
	C245.283844,538.801575 268.012421,531.445984 288.141327,518.175903 
	C287.743225,519.776611 287.345154,521.377258 286.511810,523.537231 
	C282.940735,533.089539 279.369629,542.641785 275.798523,552.194092 
	C276.082214,552.363464 276.365906,552.532898 276.649628,552.702271 
	C280.272705,549.867554 283.895782,547.032898 288.254456,543.976807 
	C290.718933,542.354919 293.349976,540.936279 295.619568,539.076538 
	C306.515503,530.148315 315.706909,519.706787 323.597382,508.233887 
	C323.810699,509.683685 324.135376,511.127197 324.217957,512.584412 
	C324.561615,518.647949 324.792328,524.718262 325.189362,530.777893 
	C325.230774,531.410034 326.098419,531.988159 326.582703,532.591370 
	C326.713867,532.135254 326.845062,531.679138 327.553345,530.839294 
	C340.019592,512.843323 347.993927,493.315613 348.394073,470.458344 
	C351.679016,469.344910 355.000183,468.327209 358.242767,467.101715 
	C373.580566,461.304962 387.834717,453.765076 399.678650,441.074158 
	C401.130646,439.058624 402.582642,437.043091 404.693970,434.860504 
	C407.634979,430.669586 411.030548,426.721405 413.424652,422.238403 
	C418.816406,412.142303 423.494446,401.711090 424.069489,389.350800 
	C424.086945,388.933777 424.104370,388.516785 424.824524,387.783508 
	C425.279480,382.551300 425.734406,377.319061 426.902069,371.686981 
	C427.328735,367.263397 427.761169,362.840363 428.180634,358.416107 
	C428.795959,351.926941 429.401978,345.436920 430.450745,338.402496 
	C433.225647,328.776093 436.072601,326.829834 449.266235,325.959442 
	C447.932556,320.837372 443.564545,319.262726 439.529785,316.465698 
	C436.498383,313.989716 433.781158,310.896606 430.372650,309.161285 
	C422.344879,305.074280 414.184357,306.616364 406.472717,310.411438 
	C401.355286,312.929901 396.524200,316.030151 391.436371,318.943604 
	C390.940826,317.405823 390.542999,316.171265 390.074890,314.008728 
	C390.053864,308.381134 390.032806,302.753510 390.329346,296.397675 
	C390.543762,293.930939 390.758179,291.464203 391.232483,288.339264 
	C391.845154,283.946899 392.418671,279.548676 393.079987,275.163635 
	C393.992096,269.115662 394.970551,263.077637 396.093018,256.310974 
	C398.290771,247.573700 400.488556,238.836441 402.920166,229.361710 
	C402.956879,228.594925 402.993591,227.828125 403.466095,226.421768 
	C403.991577,222.656158 404.517059,218.890564 405.506805,214.488190 
	C406.010895,210.964615 406.514954,207.441040 407.451233,203.308899 
	C408.299164,197.836563 409.147095,192.364243 410.514435,186.340164 
	C412.275787,175.853394 414.037170,165.366623 415.798553,154.879852 
	C415.294098,154.561295 414.789673,154.242737 414.285217,153.924194 
	C411.764832,156.655777 409.244446,159.387360 406.388733,162.609344 
	C406.191284,162.624435 405.993835,162.639542 405.798431,162.495819 
	C405.798431,162.495819 405.663055,162.598282 405.070007,163.071396 
	C387.944519,181.105194 375.210693,201.514038 370.517822,226.736313 
	C369.988800,226.834274 369.459808,226.932236 368.913208,226.274139 
	C367.474640,222.167068 366.036072,218.059998 364.630219,213.242065 
	C362.274689,206.453568 359.919189,199.665070 357.438995,192.517242 
	C355.985931,196.383148 354.790771,199.562881 353.204010,203.510773 
	C351.845123,209.684601 350.486237,215.858429 348.879883,222.810165 
	C348.761353,236.161087 348.642853,249.511993 347.534332,262.359039 
	C347.070404,261.876923 346.606506,261.394775 345.811218,260.309387 
	C339.037689,251.786392 332.264191,243.263397 325.490662,234.740402 
	C324.889832,234.932190 324.289032,235.123978 323.688202,235.315781 
	C324.568542,240.128922 325.448853,244.942078 325.990845,250.469025 
	C326.444214,255.512375 326.184174,260.750000 327.494202,265.560059 
	C330.549866,276.779694 334.360535,287.793762 337.193024,298.877838 
	C334.487823,297.716949 331.782623,296.556061 328.433868,295.076874 
	C324.610870,290.381897 320.787872,285.686890 316.861938,280.302643 
	C313.928101,275.194122 310.994263,270.085602 308.014954,264.253143 
	C304.804199,257.697876 301.463013,251.202652 298.412354,244.573700 
	C293.465118,233.823532 288.708435,222.985672 284.026276,211.398834 
	C282.108063,206.889221 280.189819,202.379608 278.116821,197.147842 
	C276.191895,193.063568 274.266937,188.979279 272.081543,184.207428 
	C270.210388,180.438477 268.339264,176.669540 266.266846,172.175583 
	C262.485718,164.457718 258.704590,156.739838 254.888260,148.298981 
	C252.918350,144.534027 250.948425,140.769089 248.943756,136.274292 
	C244.964172,128.194351 240.984589,120.114395 236.977936,111.295197 
	C231.410019,99.691902 225.842087,88.088600 220.274170,76.485306 
	C219.639862,76.605988 219.005554,76.726669 218.371231,76.847351 
	C218.553116,79.103401 218.734985,81.359459 218.274551,83.724777 
	C217.145538,89.799324 216.016541,95.873863 214.238266,102.245041 
	C214.206833,103.174911 214.175400,104.104790 213.907730,105.788597 
	C213.641663,120.850555 213.375580,135.912506 213.008499,151.849899 
	C215.129822,173.768707 220.340225,194.822235 229.917114,214.638412 
	C228.993332,214.252029 228.069550,213.865631 226.772919,212.972351 
	C221.100845,208.991638 215.428772,205.010925 209.437363,200.477859 
	C200.686600,194.174866 191.935852,187.871887 183.185089,181.568893 
	C182.756836,181.805389 182.328583,182.041870 181.900330,182.278366 
	C182.164658,184.607666 182.428970,186.936981 182.852188,190.123215 
	C184.052261,193.735931 185.159531,197.382599 186.467041,200.956009 
	C197.077072,229.952774 211.983658,256.299835 233.865906,278.606171 
	C233.285858,278.706421 232.705795,278.806671 231.491486,278.540497 
	C227.000504,277.351227 222.509521,276.161926 217.417633,274.570679 
	C204.568726,271.054291 191.998550,266.338867 178.741608,264.577667 
	C178.579300,264.962433 178.416977,265.347168 178.254654,265.731934 
	C180.203278,268.114960 182.151886,270.498016 184.083969,273.589630 
	C198.257172,291.995850 214.411789,308.329285 233.937714,321.046387 
	C233.937714,321.046387 233.834732,321.165131 234.162628,321.740265 
	C236.055542,322.885681 237.948456,324.031128 240.009460,325.032440 
	C240.009460,325.032440 239.837891,325.167328 240.168289,325.742523 
	C242.450638,327.035095 244.732971,328.327667 247.555283,330.078217 
	C249.973434,331.443481 252.391586,332.808746 254.193787,334.687714 
	C244.423615,335.447693 234.653458,336.207672 223.971954,336.857147 
	C212.538971,337.416168 201.105988,337.975189 189.672989,338.534210 
	C189.626068,338.902863 189.579147,339.271515 189.532211,339.640198 
	C191.506027,340.694702 193.479828,341.749237 195.290848,343.472504 
	C205.863419,349.560822 216.435989,355.649139 227.600830,362.143219 
	C228.942032,362.804504 230.267776,363.499512 231.626785,364.121918 
	C248.184860,371.705292 265.517792,376.771027 282.970734,380.627136 
	C280.988861,381.509003 279.006989,382.390869 276.300659,383.273132 
	C267.527496,386.859863 258.754364,390.446564 249.019638,394.426422 
	C252.336487,395.375061 254.541245,396.005646 257.476532,397.007690 
	C259.972290,397.519806 262.468018,398.031891 265.662018,398.970398 
	C277.944305,400.668701 290.226624,402.367004 302.624908,404.319519 
	C302.946014,404.251038 303.267151,404.182556 304.424622,404.259186 
	C308.343536,404.258148 312.262421,404.257111 316.216705,404.523773 
	C316.216705,404.523773 316.611420,404.541229 316.611420,404.541229 
	C316.611420,404.541229 316.756317,404.238678 317.635651,404.295135 
	C318.218964,404.233459 318.802307,404.171753 319.708099,404.642578 
	C316.547943,410.119324 313.387817,415.596039 309.884979,421.527252 
	C309.758820,421.880981 309.632690,422.234711 309.582947,422.754395 
	C309.582947,422.754395 309.725037,422.639496 309.151672,422.841064 
z"/>
<path fill="#E6E6E6" opacity="1.000000" stroke="none" 
	d="
M1.000008,626.500000 
	C1.278982,626.173462 1.557948,626.346924 1.918457,626.760193 
	C1.666667,627.000000 1.333333,627.000000 1.000008,626.500000 
z"/>
<path fill="#E6E6E6" opacity="1.000000" stroke="none" 
	d="
M626.500000,627.000000 
	C626.173340,626.720459 626.346619,626.440918 626.759949,626.080688 
	C627.000000,626.333313 627.000000,626.666687 626.500000,627.000000 
z"/>
<path fill="#E6E6E6" opacity="1.000000" stroke="none" 
	d="
M627.000000,1.500008 
	C626.721008,1.826545 626.442017,1.653074 626.081543,1.239802 
	C626.333313,1.000000 626.666687,1.000000 627.000000,1.500008 
z"/>
<path fill="#E6E6E6" opacity="1.000000" stroke="none" 
	d="
M1.500000,1.000000 
	C1.826792,1.279666 1.653583,1.559332 1.240187,1.919499 
	C1.000000,1.666667 1.000000,1.333333 1.500000,1.000000 
z"/>
<path fill="#073781" opacity="1.000000" stroke="none" 
	d="
M214.143967,105.034660 
	C214.175400,104.104790 214.206833,103.174911 214.915375,102.285759 
	C216.062561,104.756943 216.303879,107.265076 217.092453,109.587395 
	C217.532944,110.884621 218.882202,111.873268 219.895340,113.365723 
	C220.349121,115.153465 220.729492,116.576462 221.057617,118.432564 
	C222.414215,126.914597 223.823059,134.963531 225.200241,143.391724 
	C226.604019,148.914978 228.039444,154.058960 229.506119,159.592270 
	C232.028442,166.311844 234.519531,172.642105 237.014297,179.341888 
	C239.226807,184.186310 241.435654,188.661163 243.754364,193.472580 
	C245.499252,196.248322 247.134262,198.687500 248.818329,201.482544 
	C255.689590,210.409164 261.928162,219.546387 269.520966,227.369202 
	C275.459839,233.487930 283.077972,237.976746 290.156250,243.484772 
	C291.939545,249.509598 293.516571,255.239426 294.731445,260.949036 
	C291.949493,259.609863 289.529694,258.290924 287.020996,256.634918 
	C283.620514,253.891541 280.308929,251.485184 276.679962,248.969849 
	C274.689514,247.841370 273.016479,246.821854 271.282013,245.593903 
	C271.220581,245.385468 270.994171,245.014496 270.893921,244.736115 
	C270.187073,244.016495 269.580505,243.575272 268.644775,243.030441 
	C264.548096,240.273224 260.780548,237.619598 256.841187,234.674225 
	C254.102020,232.619843 251.534622,230.857239 248.695297,228.892517 
	C244.826569,226.089371 241.149734,223.590363 237.659912,220.852951 
	C235.160400,218.892380 232.911255,216.612625 230.550400,214.475281 
	C220.340225,194.822235 215.129822,173.768707 213.447815,151.318359 
	C214.258606,149.437836 214.914322,148.097809 214.957245,146.738434 
	C215.359924,133.986832 215.706635,121.232651 215.902054,108.476654 
	C215.919495,107.338562 214.757950,106.182419 214.143967,105.034660 
z"/>
<path fill="#073781" opacity="1.000000" stroke="none" 
	d="
M234.205109,278.116699 
	C211.983658,256.299835 197.077072,229.952774 186.467041,200.956009 
	C185.159531,197.382599 184.052261,193.735931 183.082199,189.555649 
	C184.043884,189.656479 184.953461,190.208298 185.479706,191.011307 
	C190.689240,198.960541 195.835312,206.951370 201.019928,215.281860 
	C205.689102,221.428375 210.337692,227.223480 215.043747,233.353836 
	C221.391998,240.083252 227.682770,246.477402 234.238647,253.092010 
	C236.915634,255.286713 239.327499,257.260986 241.949234,259.508087 
	C246.432922,262.878723 250.706772,265.976501 255.135376,269.381775 
	C257.475220,270.837585 259.660278,271.985870 262.042664,273.420074 
	C264.515869,275.136169 266.791779,276.566406 269.284119,278.283936 
	C274.102051,280.507965 278.636566,282.628113 283.320343,284.339844 
	C291.031830,287.158173 298.401733,291.293579 307.223145,291.142944 
	C307.929932,291.920319 308.416992,292.503204 308.936401,293.462585 
	C309.655518,295.899689 310.342316,297.960327 310.640900,300.006042 
	C308.490173,299.676758 306.727661,299.362488 304.570007,299.037231 
	C294.784424,296.348022 285.393951,293.669830 275.613953,290.984833 
	C272.247955,290.259247 269.271484,289.540436 266.127991,288.617889 
	C265.641205,288.275940 265.321533,288.137726 264.902283,287.806732 
	C264.603180,287.363373 264.345856,287.266693 263.636414,287.235626 
	C256.859802,285.703217 250.477478,284.259155 243.868286,282.538147 
	C240.495956,280.879700 237.350540,279.498199 234.205109,278.116699 
z"/>
<path fill="#110D9C" opacity="1.000000" stroke="none" 
	d="
M399.054779,441.416138 
	C387.834717,453.765076 373.580566,461.304962 358.242767,467.101715 
	C355.000183,468.327209 351.679016,469.344910 347.739197,470.738770 
	C343.695343,471.711304 340.306396,472.403412 336.523315,473.132874 
	C332.142273,473.820557 328.155304,474.470886 323.811920,475.082825 
	C322.032013,475.693268 320.608521,476.342102 318.936127,476.799042 
	C317.453033,476.706757 316.218872,476.806366 314.901611,476.534119 
	C312.713257,475.496033 310.607971,474.829773 308.487366,474.158691 
	C310.674011,473.013367 312.776703,472.293457 314.390961,470.975372 
	C316.697937,469.091675 318.300446,466.127625 320.820435,464.766693 
	C326.436310,461.733856 332.376221,459.267242 338.292389,456.833130 
	C344.720032,454.188660 345.090912,453.298584 341.194214,447.744690 
	C342.919861,446.649811 344.459320,445.825500 346.413818,445.002930 
	C355.987518,443.255585 365.114075,441.298218 374.323364,439.877350 
	C377.302002,439.417755 380.502777,440.647461 383.593048,440.593872 
	C386.887665,440.536774 390.169373,439.854034 393.461395,439.486176 
	C395.302704,439.280396 397.153473,439.159271 398.996216,439.402100 
	C399.013245,440.341492 399.034027,440.878815 399.054779,441.416138 
z"/>
<path fill="#073781" opacity="1.000000" stroke="none" 
	d="
M283.404938,380.031097 
	C265.517792,376.771027 248.184860,371.705292 231.626785,364.121918 
	C230.267776,363.499512 228.942032,362.804504 227.291992,361.585754 
	C223.177567,358.689423 219.533676,356.005493 215.514633,354.122101 
	C212.360489,352.643921 213.403763,351.539459 215.410431,349.997162 
	C220.142838,351.149597 224.493820,352.250488 229.141052,353.606262 
	C231.660980,354.267670 233.889069,354.651672 236.107559,355.084686 
	C244.070053,356.638977 252.029327,358.209778 260.353882,359.949341 
	C264.166443,360.797424 267.614929,361.470520 271.370422,362.411438 
	C278.732483,362.785828 285.788269,362.999817 292.842316,362.952271 
	C296.210510,362.929565 299.575378,362.410400 303.336731,362.036621 
	C306.533478,361.367981 309.335297,360.778778 312.528015,360.151947 
	C315.288666,359.694641 317.658386,359.274933 320.413513,358.888306 
	C326.108948,357.471558 331.463043,356.161774 336.710205,354.511963 
	C339.283386,353.702881 341.658112,352.262695 344.404419,351.251251 
	C345.463654,352.588898 346.241119,353.783478 346.736450,355.110901 
	C345.576050,355.770111 344.697754,356.296448 343.450867,356.873901 
	C333.991364,360.583679 324.900452,364.242310 315.451172,367.946655 
	C312.017456,369.295593 308.942078,370.598785 305.501221,371.946289 
	C297.892151,374.670715 290.648529,377.350922 283.404938,380.031097 
z"/>
<path fill="#063782" opacity="1.000000" stroke="none" 
	d="
M254.809738,334.173981 
	C252.391586,332.808746 249.973434,331.443481 247.267273,329.494293 
	C245.878464,325.221222 243.164169,324.610474 239.837891,325.167328 
	C239.837891,325.167328 240.009460,325.032440 239.939240,324.714417 
	C239.319717,320.588776 236.623398,320.790710 233.834732,321.165131 
	C233.834732,321.165131 233.937714,321.046387 233.821106,320.766602 
	C229.542755,316.694153 225.280838,313.004761 221.241653,309.085785 
	C214.419983,302.467133 207.739334,295.703156 200.999695,289.000122 
	C201.000000,289.000000 201.000610,288.999359 201.434753,288.999329 
	C203.610291,288.984467 205.351685,288.969635 207.404999,289.078552 
	C209.459686,290.229187 211.202438,291.256042 213.136322,292.542664 
	C218.546783,295.886078 223.766113,298.969696 229.189133,302.327057 
	C233.248779,304.501495 237.104721,306.402222 241.188568,308.540466 
	C247.273758,311.186737 253.131058,313.595520 259.091553,316.199524 
	C259.396210,316.647736 259.657166,316.752563 260.310638,316.784485 
	C261.095764,316.908356 261.547821,316.956940 262.316711,317.179810 
	C265.428711,318.246246 268.223877,319.138458 271.365601,320.199768 
	C279.801514,321.920807 287.890869,323.472778 296.281982,325.313934 
	C303.932922,325.730713 311.286316,326.027863 318.627747,325.844696 
	C320.119141,325.807495 321.565399,323.959961 323.375824,323.037842 
	C324.847900,325.370544 325.976624,327.612305 326.679626,329.898773 
	C324.828949,330.002380 323.403992,330.061279 321.543152,330.073975 
	C315.737335,330.683807 310.367340,331.339874 304.529541,332.023041 
	C300.608002,332.029755 297.139343,331.794586 293.703644,332.033447 
	C286.440002,332.538483 279.193573,333.291199 271.504028,333.978394 
	C269.023712,334.080902 266.979523,334.147308 264.482666,334.164276 
	C260.956604,334.134552 257.883179,334.154266 254.809738,334.173981 
z"/>
<path fill="#0C3781" opacity="1.000000" stroke="none" 
	d="
M370.806335,226.427567 
	C375.210693,201.514038 387.944519,181.105194 405.342438,162.893829 
	C405.614868,162.716263 405.796356,162.654633 405.796356,162.654633 
	C405.993835,162.639542 406.191284,162.624435 406.865540,162.383148 
	C407.026306,163.544434 406.968201,165.062286 406.345306,166.294678 
	C404.548981,169.848633 402.524933,173.287476 400.296265,176.956451 
	C397.672424,182.418015 395.342621,187.694656 392.791107,193.249405 
	C391.917786,195.493408 391.266205,197.459305 390.381561,199.711060 
	C389.748688,201.651016 389.348846,203.305145 388.681641,205.221329 
	C387.343109,210.658585 386.271942,215.833755 385.121063,221.428787 
	C384.973389,223.830704 384.905426,225.812759 384.651733,228.171295 
	C383.511688,241.131287 385.075012,253.325317 390.099457,265.386353 
	C389.007812,269.542419 387.919495,273.295502 386.480103,276.957886 
	C385.415680,274.913727 384.702332,272.960205 383.776245,270.981262 
	C383.563477,270.955872 383.135040,270.938538 383.122711,270.521759 
	C381.801086,266.384705 380.491821,262.664429 379.162323,258.549744 
	C378.412384,255.768097 377.682678,253.380829 376.940796,250.618759 
	C375.696259,247.058838 374.463867,243.873734 373.215515,240.300919 
	C372.401764,235.417999 371.604065,230.922775 370.806335,226.427567 
z"/>
<path fill="#063782" opacity="1.000000" stroke="none" 
	d="
M319.385620,404.110046 
	C318.802307,404.171753 318.218964,404.233459 317.052856,404.199463 
	C316.470032,404.103821 316.181335,404.256104 316.181335,404.256104 
	C312.262421,404.257111 308.343536,404.258148 303.839935,404.099976 
	C302.989746,403.881317 302.740967,403.922821 302.508911,404.065277 
	C290.226624,402.367004 277.944305,400.668701 265.452179,398.397522 
	C266.795319,397.537201 268.345459,397.021362 269.901764,397.001953 
	C276.470337,396.920166 283.041168,397.024078 289.609863,396.946991 
	C290.364441,396.938141 291.110718,396.221130 292.214417,395.631165 
	C297.367889,394.819489 302.167755,394.209076 307.361572,393.653625 
	C314.189697,392.161041 320.623932,390.613525 327.034363,389.085693 
	C327.010559,389.105377 327.064240,389.135925 327.313660,389.178680 
	C327.727661,389.184418 327.892273,389.147369 328.451233,389.102173 
	C335.236816,386.967590 341.627991,384.841217 348.238861,382.692719 
	C348.743927,382.531830 348.924408,382.308289 349.000000,382.000000 
	C349.000000,382.000000 348.999939,382.000000 349.361511,381.969482 
	C354.704742,379.478943 359.742737,377.122986 364.625610,374.480438 
	C365.747101,373.873474 366.335510,372.281464 367.478149,371.166687 
	C368.843231,371.801575 369.899384,372.412598 370.991150,373.388489 
	C371.112366,374.233917 371.197968,374.714539 371.100281,375.482849 
	C368.221466,378.478363 365.525940,381.186218 362.542236,384.053467 
	C358.787811,387.443939 355.321594,390.675018 351.565002,394.061401 
	C348.856659,396.523712 346.438721,398.830750 343.727966,401.253418 
	C342.908600,401.736115 342.381989,402.103210 341.700928,402.156494 
	C336.940796,402.280273 332.333252,402.699066 327.730194,403.162323 
	C324.945099,403.442627 322.166901,403.791809 319.385620,404.110046 
z"/>
<path fill="#2319B2" opacity="1.000000" stroke="none" 
	d="
M371.283539,375.195160 
	C371.197968,374.714539 371.112366,374.233917 371.290283,373.342529 
	C371.653259,368.385132 374.848511,366.178436 378.261108,364.216583 
	C381.260925,362.492004 384.324829,360.873322 387.406250,359.297485 
	C393.638855,356.110260 395.032257,353.567261 394.465210,346.986389 
	C404.591003,347.270355 413.870758,345.818298 422.608612,341.381378 
	C424.898102,340.218842 427.534760,339.740051 430.011963,338.947266 
	C429.401978,345.436920 428.795959,351.926941 428.180634,358.416107 
	C427.761169,362.840363 427.328735,367.263397 426.219208,371.612671 
	C425.536346,366.110565 425.536346,360.682800 425.536346,354.331635 
	C414.538422,359.989929 404.342743,365.035217 394.367157,370.483521 
	C391.163879,372.233002 388.476501,374.972778 385.703369,377.429108 
	C385.079773,377.981476 385.085022,379.243713 384.450073,380.103729 
	C379.827393,378.417267 375.555481,376.806213 371.283539,375.195160 
z"/>
<path fill="#F352C9" opacity="1.000000" stroke="none" 
	d="
M289.949982,243.189774 
	C283.077972,237.976746 275.459839,233.487930 269.520966,227.369202 
	C261.928162,219.546387 255.689590,210.409164 249.168533,201.484253 
	C252.519363,204.230942 255.313278,204.769913 259.487640,202.202103 
	C265.062103,198.773026 271.385284,196.579254 278.271576,197.869995 
	C280.189819,202.379608 282.108063,206.889221 283.705322,212.024811 
	C284.406250,217.404099 285.428131,222.157410 286.450043,226.910721 
	C287.616669,232.337067 288.783325,237.763428 289.949982,243.189774 
z"/>
<path fill="#110A70" opacity="1.000000" stroke="none" 
	d="
M423.940308,389.958130 
	C423.494446,401.711090 418.816406,412.142303 413.424652,422.238403 
	C411.030548,426.721405 407.634979,430.669586 404.215759,434.632812 
	C401.973999,432.961517 400.247589,430.363037 398.439484,430.304871 
	C394.129272,430.166260 389.667542,430.812775 385.487854,431.952209 
	C382.790741,432.687439 381.043518,432.879333 378.787201,430.888275 
	C377.558350,429.803894 375.131134,429.858612 373.232117,429.800415 
	C369.814087,429.695709 366.386780,429.892578 363.213684,429.694946 
	C367.282104,427.968933 371.102783,426.518280 374.917755,425.052612 
	C387.865814,420.077972 399.280212,412.649384 409.501404,403.339478 
	C414.352478,398.920868 419.129669,394.421143 423.940308,389.958130 
z"/>
<path fill="#073781" opacity="1.000000" stroke="none" 
	d="
M288.258942,517.328491 
	C268.012421,531.445984 245.283844,538.801575 220.637573,541.600220 
	C220.559113,540.852478 220.809036,540.358826 221.199448,540.190002 
	C229.804382,536.468079 238.424866,532.782043 247.390350,529.027893 
	C250.903152,527.128357 254.068024,525.290039 257.558777,523.320312 
	C261.601349,520.461975 265.318024,517.735107 269.367126,514.950684 
	C271.798767,513.244690 273.897980,511.596313 276.300201,509.815155 
	C283.932556,501.005798 291.306732,492.366364 298.549469,483.618103 
	C299.843750,482.054749 301.011353,479.871613 297.348083,479.740845 
	C299.366852,479.314392 301.166382,479.192657 302.809143,479.386841 
	C301.398102,483.376923 300.143860,487.051025 298.639984,491.001221 
	C297.151978,494.771393 295.913544,498.265503 294.464539,502.048065 
	C292.478790,507.172333 290.703644,512.008118 288.780457,516.876953 
	C288.405457,516.958313 288.280975,517.097778 288.258942,517.328491 
z"/>
<path fill="#1615B1" opacity="1.000000" stroke="none" 
	d="
M384.800781,380.179169 
	C385.085022,379.243713 385.079773,377.981476 385.703369,377.429108 
	C388.476501,374.972778 391.163879,372.233002 394.367157,370.483521 
	C404.342743,365.035217 414.538422,359.989929 425.536346,354.331635 
	C425.536346,360.682800 425.536346,366.110565 425.862854,371.812592 
	C425.734406,377.319061 425.279480,382.551300 424.257324,387.730591 
	C423.995941,383.540497 420.840027,385.474792 418.568909,385.017151 
	C410.973022,384.957672 403.850220,384.908539 396.557587,384.564575 
	C392.907928,383.137970 389.428101,382.006195 385.826721,380.677216 
	C385.479279,380.245087 385.203827,380.115387 384.868835,380.121460 
	C384.858856,380.151947 384.800781,380.179169 384.800781,380.179169 
z"/>
<path fill="#260D88" opacity="1.000000" stroke="none" 
	d="
M345.998779,445.001221 
	C344.459320,445.825500 342.919861,446.649811 340.800537,447.785767 
	C337.142822,448.736481 334.065033,449.375580 330.537231,450.012146 
	C324.476929,450.237000 318.816162,448.442474 313.248230,450.935760 
	C309.090393,452.797577 304.758453,454.336639 300.392975,455.650543 
	C295.970215,456.981689 294.929260,455.933899 294.886230,451.273926 
	C294.878754,450.463165 294.069122,449.659790 293.630005,448.852997 
	C296.506165,443.886444 299.382355,438.919891 302.767029,434.132568 
	C310.186188,434.546051 317.096924,434.780304 324.472839,435.024384 
	C329.626221,435.024231 334.314392,435.014282 339.067078,435.358551 
	C342.910126,437.707764 345.013214,440.941376 345.998779,445.001221 
z"/>
<path fill="#F6829B" opacity="1.000000" stroke="none" 
	d="
M237.010635,178.972351 
	C234.519531,172.642105 232.028442,166.311844 229.880951,159.448425 
	C237.006454,155.857803 243.765091,152.746597 250.590576,149.789795 
	C251.900009,149.222549 253.472397,149.262268 254.923462,149.021973 
	C258.704590,156.739838 262.485718,164.457718 265.982117,172.458710 
	C263.192719,170.515671 260.863831,170.653671 258.250092,172.811356 
	C252.094925,177.892532 244.673889,178.922485 237.010635,178.972351 
z"/>
<path fill="#9040D0" opacity="1.000000" stroke="none" 
	d="
M233.973572,252.871552 
	C227.682770,246.477402 221.391998,240.083252 215.389648,233.295258 
	C217.368073,230.544556 219.263687,228.305847 220.701096,225.803894 
	C223.008682,221.787247 225.013184,217.596436 227.145782,213.479218 
	C228.069550,213.865631 228.993332,214.252029 230.233765,214.556854 
	C232.911255,216.612625 235.160400,218.892380 237.659912,220.852951 
	C241.149734,223.590363 244.826569,226.089371 248.632812,229.246765 
	C247.430161,235.777557 242.634476,239.467453 239.260590,244.128860 
	C237.270569,246.878311 235.721146,249.946640 233.973572,252.871552 
z"/>
<path fill="#84D639" opacity="1.000000" stroke="none" 
	d="
M254.501770,334.430847 
	C257.883179,334.154266 260.956604,334.134552 264.474518,334.561096 
	C262.310333,335.670868 259.674927,336.247040 257.103638,337.032806 
	C255.706177,337.459839 253.586090,337.931824 253.217026,338.917267 
	C251.071899,344.645142 254.658661,353.758820 259.927399,357.305145 
	C260.322968,357.571411 259.986176,358.925751 259.989807,359.774323 
	C252.029327,358.209778 244.070053,356.638977 236.107559,355.084686 
	C233.889069,354.651672 231.660980,354.267670 229.147369,353.227997 
	C226.695724,351.087891 224.533981,349.580933 222.606720,348.237457 
	C222.606720,345.164429 222.606720,342.336945 222.606720,339.386475 
	C224.645691,339.083984 226.592834,338.795105 228.539963,338.506226 
	C228.522812,338.156647 228.505661,337.807068 228.488495,337.457458 
	C227.286758,337.294220 226.085022,337.130951 224.883286,336.967651 
	C234.653458,336.207672 244.423615,335.447693 254.501770,334.430847 
z"/>
<path fill="#073781" opacity="1.000000" stroke="none" 
	d="
M348.524323,262.862915 
	C348.642853,249.511993 348.761353,236.161087 349.267395,222.713654 
	C349.654907,227.699188 349.654907,232.781219 349.654907,237.427887 
	C350.010437,235.484253 350.668701,233.113724 350.824799,230.710602 
	C351.006531,227.913055 351.113708,225.333435 354.821716,225.398956 
	C354.991547,226.850845 355.074005,227.913132 355.092896,229.417267 
	C355.729401,235.237564 356.429504,240.616013 357.090668,246.378662 
	C357.741150,249.501373 358.430573,252.239868 359.088623,255.358185 
	C359.779694,258.142059 360.502106,260.546082 361.219727,263.305908 
	C362.772827,266.796844 364.330719,269.931976 366.027344,273.309509 
	C366.442963,274.036774 366.719849,274.521606 367.024689,275.369293 
	C368.402008,278.324951 369.432739,281.158661 371.170807,283.457581 
	C374.249634,287.529846 377.758270,291.277161 381.098206,295.594818 
	C381.027435,298.971161 380.945526,301.913086 380.582642,304.914093 
	C379.923462,305.020538 379.545319,305.067902 379.133148,304.710022 
	C379.211609,298.369965 374.145264,295.793274 370.923462,291.631500 
	C369.225891,289.516815 367.676239,287.695190 365.944244,285.596069 
	C363.829712,282.891235 361.897583,280.463959 359.795471,277.748413 
	C356.908081,274.244324 354.190613,271.028473 351.344604,267.503937 
	C350.318817,265.751129 349.421570,264.307007 348.524323,262.862915 
z"/>
<path fill="#3112B6" opacity="1.000000" stroke="none" 
	d="
M419.042023,385.027466 
	C420.840027,385.474792 423.995941,383.540497 423.905975,387.888702 
	C424.104370,388.516785 424.086945,388.933777 424.004883,389.654480 
	C419.129669,394.421143 414.352478,398.920868 409.501404,403.339478 
	C399.280212,412.649384 387.865814,420.077972 374.917755,425.052612 
	C371.102783,426.518280 367.282104,427.968933 362.834839,429.744751 
	C357.802216,431.021149 353.398834,431.979218 349.036377,432.596069 
	C352.011505,430.129089 354.997620,428.070770 357.867004,425.860870 
	C361.623535,422.967651 365.287872,419.954712 369.081360,416.627075 
	C374.368591,414.223083 379.789276,412.612579 384.710388,410.044647 
	C391.590546,406.454437 398.392242,402.557739 404.673767,398.024872 
	C409.879059,394.268677 414.283020,389.402100 419.042023,385.027466 
z"/>
<path fill="#073781" opacity="1.000000" stroke="none" 
	d="
M337.865387,298.891083 
	C334.360535,287.793762 330.549866,276.779694 327.494202,265.560059 
	C326.184174,260.750000 326.444214,255.512375 326.500793,250.220108 
	C327.681885,250.972229 328.536255,251.896835 328.991425,252.987961 
	C330.666565,257.003815 332.209412,261.074829 333.857727,265.487732 
	C335.924286,270.251251 337.935211,274.652130 340.086731,279.365784 
	C342.817047,283.786865 345.406708,287.895142 348.122253,292.309143 
	C349.801025,294.485413 351.353912,296.355957 352.962769,298.557129 
	C355.655579,301.627350 358.292450,304.366882 361.093872,307.395905 
	C365.091858,310.807434 368.958221,313.890320 372.745758,317.067108 
	C374.830170,318.815430 376.769928,318.554352 378.811859,317.477875 
	C378.956116,321.991394 379.051239,326.045044 378.993774,330.365326 
	C378.285492,330.867493 377.729797,331.103027 377.136047,330.930725 
	C378.301514,324.012634 377.288452,322.392365 370.997437,320.554260 
	C369.047668,319.094238 367.171967,317.964111 365.065186,316.577789 
	C361.517426,314.221436 358.200775,312.121216 354.706970,309.737427 
	C350.696503,307.286987 346.863190,305.120178 342.843811,302.667358 
	C341.060303,301.217926 339.462830,300.054504 337.865387,298.891083 
z"/>
<path fill="#2E139E" opacity="1.000000" stroke="none" 
	d="
M293.356262,449.039154 
	C294.069122,449.659790 294.878754,450.463165 294.886230,451.273926 
	C294.929260,455.933899 295.970215,456.981689 300.392975,455.650543 
	C304.758453,454.336639 309.090393,452.797577 313.248230,450.935760 
	C318.816162,448.442474 324.476929,450.237000 330.497925,450.370758 
	C330.429718,451.373749 330.090271,452.277954 329.450897,452.617828 
	C320.857605,457.185913 312.203156,461.638824 303.603516,466.195221 
	C295.937836,470.256805 288.617340,474.809296 282.931702,481.548981 
	C283.362000,481.736115 283.792267,481.923248 283.896912,482.337769 
	C280.390533,483.127716 277.209808,483.690277 274.029114,484.252838 
	C280.380280,472.576996 286.731415,460.901154 293.356262,449.039154 
z"/>
<path fill="#1A0B7F" opacity="1.000000" stroke="none" 
	d="
M348.995422,432.937317 
	C353.398834,431.979218 357.802216,431.021149 362.584473,430.013245 
	C366.386780,429.892578 369.814087,429.695709 373.232117,429.800415 
	C375.131134,429.858612 377.558350,429.803894 378.787201,430.888275 
	C381.043518,432.879333 382.790741,432.687439 385.487854,431.952209 
	C389.667542,430.812775 394.129272,430.166260 398.439484,430.304871 
	C400.247589,430.363037 401.973999,432.961517 403.886108,434.716339 
	C402.582642,437.043091 401.130646,439.058624 399.366699,441.245148 
	C399.034027,440.878815 399.013245,440.341492 399.131592,439.344238 
	C399.180511,438.922882 399.090271,438.961456 399.000000,439.000000 
	C397.153473,439.159271 395.302704,439.280396 393.461395,439.486176 
	C390.169373,439.854034 386.887665,440.536774 383.593048,440.593872 
	C380.502777,440.647461 377.302002,439.417755 374.323364,439.877350 
	C365.114075,441.298218 355.987518,443.255585 346.413818,445.002930 
	C345.013214,440.941376 342.910126,437.707764 339.483551,435.347717 
	C342.888763,434.300873 345.942108,433.619080 348.995422,432.937317 
z"/>
<path fill="#8721C4" opacity="1.000000" stroke="none" 
	d="
M430.231354,338.674866 
	C427.534760,339.740051 424.898102,340.218842 422.608612,341.381378 
	C413.870758,345.818298 404.591003,347.270355 394.164612,346.846893 
	C392.250275,346.163849 391.099274,345.599731 390.366760,345.009644 
	C393.705231,345.182281 396.158936,344.901886 397.953156,341.861053 
	C398.797577,340.429962 401.212799,339.902222 402.947296,339.026672 
	C404.505859,338.239868 406.232971,337.725769 407.667999,336.765839 
	C415.031189,331.840485 421.631409,325.796539 430.440430,323.067871 
	C433.026917,322.266693 434.869385,319.063507 437.408264,316.986572 
	C438.473145,317.013062 439.182617,317.014221 439.892059,317.015350 
	C443.564545,319.262726 447.932556,320.837372 449.266235,325.959442 
	C436.072601,326.829834 433.225647,328.776093 430.231354,338.674866 
z"/>
<path fill="#F99F7D" opacity="1.000000" stroke="none" 
	d="
M225.231903,143.012451 
	C223.823059,134.963531 222.414215,126.914597 221.425049,118.360603 
	C223.837601,116.909592 225.747849,115.611748 227.847076,115.118851 
	C229.858673,114.646545 232.143311,115.341385 234.157608,114.874596 
	C235.266586,114.617599 236.066010,113.024918 237.005005,112.034439 
	C240.984589,120.114395 244.964172,128.194351 248.559464,136.646469 
	C241.375870,139.788116 232.171768,136.834686 228.125320,145.571396 
	C227.058136,144.627579 226.145004,143.820007 225.231903,143.012451 
z"/>
<path fill="#34CADF" opacity="1.000000" stroke="none" 
	d="
M306.967651,393.598663 
	C302.167755,394.209076 297.367889,394.819489 291.755249,395.601868 
	C280.183472,395.607208 269.424438,395.440613 259.147858,395.187988 
	C265.499817,395.101990 271.369293,395.101990 276.309692,395.101990 
	C276.575836,390.701477 276.800476,386.987122 277.025146,383.272766 
	C279.006989,382.390869 280.988861,381.509003 283.187836,380.329102 
	C290.648529,377.350922 297.892151,374.670715 305.685608,372.154663 
	C306.035980,373.344910 305.612244,374.384613 305.673706,375.394836 
	C306.043213,381.466522 306.524048,387.531464 306.967651,393.598663 
z"/>
<path fill="#C24ACD" opacity="1.000000" stroke="none" 
	d="
M226.959351,213.225784 
	C225.013184,217.596436 223.008682,221.787247 220.701096,225.803894 
	C219.263687,228.305847 217.368073,230.544556 215.332184,232.959991 
	C210.337692,227.223480 205.689102,221.428375 200.988678,214.887878 
	C200.714539,213.045624 200.800705,211.736649 200.217239,210.888138 
	C197.510818,206.952332 199.806717,203.569153 201.654602,200.489563 
	C202.082214,199.776917 205.342148,200.783432 207.302185,200.961273 
	C208.115753,201.035095 208.938263,201.010208 209.756714,201.030212 
	C215.428772,205.010925 221.100845,208.991638 226.959351,213.225784 
z"/>
<path fill="#073781" opacity="1.000000" stroke="none" 
	d="
M319.185028,476.990906 
	C320.608521,476.342102 322.032013,475.693268 323.499390,475.321289 
	C323.065796,476.849823 322.139862,478.121216 322.193878,479.349487 
	C322.364594,483.229370 322.902344,487.093079 323.306274,491.293579 
	C323.453308,492.267548 323.592133,492.911011 323.490662,493.918396 
	C323.468628,497.889801 323.686859,501.497314 323.817810,505.362915 
	C323.479675,506.284454 323.228821,506.947876 322.977966,507.611298 
	C315.706909,519.706787 306.515503,530.148315 295.619568,539.076538 
	C293.349976,540.936279 290.718933,542.354919 287.731873,543.801086 
	C288.011780,542.095093 288.646210,540.442810 289.650848,539.059387 
	C291.890076,535.976013 294.314301,533.026978 296.940491,529.805725 
	C298.863403,527.126831 300.508881,524.665466 302.427338,521.998169 
	C304.512390,518.603271 306.324463,515.414246 308.389923,511.980530 
	C310.442169,507.515503 312.241028,503.295166 314.306213,498.820251 
	C316.110016,491.374084 317.647522,484.182495 319.185028,476.990906 
z"/>
<path fill="#129AD2" opacity="1.000000" stroke="none" 
	d="
M273.725891,484.354980 
	C277.209808,483.690277 280.390533,483.127716 284.295166,482.348389 
	C289.055695,481.436249 293.092316,480.740875 297.128906,480.045502 
	C301.011353,479.871613 299.843750,482.054749 298.549469,483.618103 
	C291.306732,492.366364 283.932556,501.005798 276.142822,509.459503 
	C275.486816,504.101105 273.337708,500.052094 269.489807,496.580597 
	C268.086273,495.314423 267.752472,492.862488 266.930634,490.951538 
	C269.094635,488.786743 271.258636,486.621948 273.725891,484.354980 
z"/>
<path fill="#46D391" opacity="1.000000" stroke="none" 
	d="
M212.945175,292.282898 
	C211.202438,291.256042 209.459686,290.229187 207.193619,288.817230 
	C200.998932,283.992950 195.395859,279.461609 189.610764,275.175934 
	C188.058945,274.026367 185.952393,273.625610 184.100494,272.881073 
	C182.151886,270.498016 180.203278,268.114960 178.254654,265.731934 
	C178.416977,265.347168 178.579300,264.962433 178.741608,264.577667 
	C191.998550,266.338867 204.568726,271.054291 217.447205,274.995972 
	C214.362747,280.610870 212.758896,286.206329 212.945175,292.282898 
z"/>
<path fill="#F66EAF" opacity="1.000000" stroke="none" 
	d="
M237.014297,179.341888 
	C244.673889,178.922485 252.094925,177.892532 258.250092,172.811356 
	C260.863831,170.653671 263.192719,170.515671 266.082764,172.821198 
	C268.339264,176.669540 270.210388,180.438477 271.790710,184.588715 
	C262.214722,187.692001 252.929611,190.414017 243.644485,193.136032 
	C241.435654,188.661163 239.226807,184.186310 237.014297,179.341888 
z"/>
<path fill="#F352C9" opacity="1.000000" stroke="none" 
	d="
M390.102814,264.983368 
	C385.075012,253.325317 383.511688,241.131287 384.820343,228.514404 
	C387.319366,229.684189 389.607361,230.690918 391.579803,232.130157 
	C396.098389,235.427277 399.744476,234.938995 402.686310,230.099167 
	C400.488556,238.836441 398.290771,247.573700 395.648376,256.717163 
	C394.432190,258.393738 393.691010,259.683929 392.880890,260.929291 
	C391.987854,262.302124 391.031586,263.633789 390.102814,264.983368 
z"/>
<path fill="#FCB665" opacity="1.000000" stroke="none" 
	d="
M236.991455,111.664810 
	C236.066010,113.024918 235.266586,114.617599 234.157608,114.874596 
	C232.143311,115.341385 229.858673,114.646545 227.847076,115.118851 
	C225.747849,115.611748 223.837601,116.909592 221.477310,117.927490 
	C220.729492,116.576462 220.349121,115.153465 219.968475,112.916672 
	C219.617752,102.607086 219.267303,93.111305 218.916855,83.615517 
	C218.734985,81.359459 218.553116,79.103401 218.371231,76.847351 
	C219.005554,76.726669 219.639862,76.605988 220.274170,76.485306 
	C225.842087,88.088600 231.410019,99.691902 236.991455,111.664810 
z"/>
<path fill="#0C3781" opacity="1.000000" stroke="none" 
	d="
M336.917419,473.095520 
	C340.306396,472.403412 343.695343,471.711304 347.512421,471.034882 
	C347.993927,493.315613 340.019592,512.843323 327.366638,530.662476 
	C330.158325,520.050354 333.136719,509.615051 336.352661,498.843842 
	C336.699280,490.037170 336.808350,481.566345 336.917419,473.095520 
z"/>
<path fill="#DC9AB5" opacity="1.000000" stroke="none" 
	d="
M439.710938,316.740540 
	C439.182617,317.014221 438.473145,317.013062 437.207275,316.643188 
	C435.248047,315.833527 433.865601,315.095245 432.439331,314.997650 
	C418.492157,314.043243 405.465118,317.369019 393.289307,324.009613 
	C387.073090,327.399872 381.103424,331.242249 375.086975,334.561890 
	C375.825806,333.275177 376.499969,332.306885 377.174133,331.338562 
	C377.729797,331.103027 378.285492,330.867493 379.295105,330.229797 
	C382.855652,326.956787 385.962219,324.085938 389.399078,320.966309 
	C389.867950,318.790649 390.006561,316.863678 390.145142,314.936737 
	C390.542999,316.171265 390.940826,317.405823 391.436371,318.943604 
	C396.524200,316.030151 401.355286,312.929901 406.472717,310.411438 
	C414.184357,306.616364 422.344879,305.074280 430.372650,309.161285 
	C433.781158,310.896606 436.498383,313.989716 439.710938,316.740540 
z"/>
<path fill="#F8918C" opacity="1.000000" stroke="none" 
	d="
M225.200226,143.391724 
	C226.145004,143.820007 227.058136,144.627579 228.125320,145.571396 
	C232.171768,136.834686 241.375870,139.788116 248.576843,137.011383 
	C250.948425,140.769089 252.918350,144.534027 254.905853,148.660477 
	C253.472397,149.262268 251.900009,149.222549 250.590576,149.789795 
	C243.765091,152.746597 237.006454,155.857803 229.849731,159.059113 
	C228.039444,154.058960 226.604019,148.914978 225.200226,143.391724 
z"/>
<path fill="#F461BE" opacity="1.000000" stroke="none" 
	d="
M243.754364,193.472580 
	C252.929611,190.414017 262.214722,187.692001 271.920929,184.932495 
	C274.266937,188.979279 276.191895,193.063568 278.194214,197.508911 
	C271.385284,196.579254 265.062103,198.773026 259.487640,202.202103 
	C255.313278,204.769913 252.519363,204.230942 249.119476,201.128387 
	C247.134262,198.687500 245.499252,196.248322 243.754364,193.472580 
z"/>
<path fill="#C24ACD" opacity="1.000000" stroke="none" 
	d="
M290.156250,243.484772 
	C288.783325,237.763428 287.616669,232.337067 286.450043,226.910721 
	C285.428131,222.157410 284.406250,217.404099 283.627808,212.417816 
	C288.708435,222.985672 293.465118,233.823532 298.412354,244.573700 
	C301.463013,251.202652 304.804199,257.697876 307.670288,264.643738 
	C304.255219,266.307678 302.757294,268.474548 302.886353,271.927002 
	C302.922699,272.898926 301.820160,273.913391 301.158234,274.606537 
	C301.039978,273.888916 301.003448,273.473145 300.991089,272.682007 
	C300.383820,271.185913 299.752441,270.065125 299.008575,268.605225 
	C298.186646,266.516174 297.477203,264.766235 296.731476,262.721680 
	C296.140533,261.932617 295.585846,261.438171 295.038147,260.971008 
	C295.045074,260.998322 295.093567,260.969269 295.093567,260.969269 
	C293.516571,255.239426 291.939545,249.509598 290.156250,243.484772 
z"/>
<path fill="#7023BB" opacity="1.000000" stroke="none" 
	d="
M319.546875,404.376312 
	C322.166901,403.791809 324.945099,403.442627 327.730194,403.162323 
	C332.333252,402.699066 336.940796,402.280273 341.543854,402.398743 
	C339.297058,405.050903 337.072784,407.168823 334.804688,409.238800 
	C329.604523,413.984711 324.388855,418.713745 319.166504,423.435272 
	C317.561768,424.886139 317.080780,425.937500 320.054565,426.294312 
	C317.554840,429.278900 317.540283,429.348389 309.761261,427.717773 
	C308.997955,427.557739 308.554321,425.872925 307.962280,424.895874 
	C307.883057,424.587952 307.949860,424.315887 308.667786,423.900330 
	C309.356873,423.360504 309.540955,423.000000 309.725037,422.639496 
	C309.725037,422.639496 309.582947,422.754395 309.827576,422.727722 
	C310.124054,422.158295 310.175842,421.615540 310.227661,421.072784 
	C313.387817,415.596039 316.547943,410.119324 319.546875,404.376312 
z"/>
<path fill="#32B090" opacity="1.000000" stroke="none" 
	d="
M240.960663,308.302948 
	C237.104721,306.402222 233.248779,304.501495 229.193329,301.859741 
	C229.007919,293.569550 228.807816,285.990173 232.125748,278.906891 
	C232.705795,278.806671 233.285858,278.706421 234.035507,278.361450 
	C237.350540,279.498199 240.495956,280.879700 243.837555,283.011108 
	C243.009354,291.941650 241.985001,300.122314 240.960663,308.302948 
z"/>
<path fill="#3CC290" opacity="1.000000" stroke="none" 
	d="
M231.808624,278.723694 
	C228.807816,285.990173 229.007919,293.569550 228.989624,301.585999 
	C223.766113,298.969696 218.546783,295.886078 213.136322,292.542664 
	C212.758896,286.206329 214.362747,280.610870 217.747650,275.196960 
	C222.509521,276.161926 227.000504,277.351227 231.808624,278.723694 
z"/>
<path fill="#A1E62C" opacity="1.000000" stroke="none" 
	d="
M224.427612,336.912415 
	C226.085022,337.130951 227.286758,337.294220 228.488495,337.457458 
	C228.505661,337.807068 228.522812,338.156647 228.539963,338.506226 
	C226.592834,338.795105 224.645691,339.083984 222.606720,339.386475 
	C222.606720,342.336945 222.606720,345.164429 222.606720,348.237457 
	C224.533981,349.580933 226.695724,351.087891 228.851135,352.973083 
	C224.493820,352.250488 220.142838,351.149597 215.204498,349.687988 
	C208.229279,347.152802 201.841446,344.978302 195.453629,342.803802 
	C193.479828,341.749237 191.506027,340.694702 189.532211,339.640198 
	C189.579147,339.271515 189.626068,338.902863 189.672989,338.534210 
	C201.105988,337.975189 212.538971,337.416168 224.427612,336.912415 
z"/>
<path fill="#34CADF" opacity="1.000000" stroke="none" 
	d="
M336.115112,499.179688 
	C333.136719,509.615051 330.158325,520.050354 327.078064,530.854370 
	C326.845062,531.679138 326.713867,532.135254 326.582703,532.591370 
	C326.098419,531.988159 325.230774,531.410034 325.189362,530.777893 
	C324.792328,524.718262 324.561615,518.647949 324.217957,512.584412 
	C324.135376,511.127197 323.810699,509.683685 323.287659,507.922607 
	C323.228821,506.947876 323.479675,506.284454 323.865234,504.892822 
	C323.910309,500.627899 323.820648,497.091187 323.730957,493.554474 
	C323.592133,492.911011 323.453308,492.267548 323.772491,491.320923 
	C330.681671,490.113251 332.136230,496.484283 336.115112,499.179688 
z"/>
<path fill="#3FD7E2" opacity="1.000000" stroke="none" 
	d="
M247.042389,529.089172 
	C238.424866,532.782043 229.804382,536.468079 221.199448,540.190002 
	C220.809036,540.358826 220.559113,540.852478 220.215317,541.565796 
	C218.502090,541.936707 216.817337,541.936707 215.132568,541.936707 
	C214.920013,541.477051 214.707443,541.017395 214.494873,540.557739 
	C221.990219,533.399963 229.485565,526.242249 237.608276,519.133179 
	C239.845367,520.686951 241.574554,522.085815 243.031509,523.726501 
	C244.508514,525.389709 245.716537,527.291748 247.042389,529.089172 
z"/>
<path fill="#46D391" opacity="1.000000" stroke="none" 
	d="
M333.802063,265.125122 
	C332.209412,261.074829 330.666565,257.003815 328.991425,252.987961 
	C328.536255,251.896835 327.681885,250.972229 326.669983,249.863205 
	C325.448853,244.942078 324.568542,240.128922 323.688202,235.315781 
	C324.289032,235.123978 324.889832,234.932190 325.490662,234.740402 
	C332.264191,243.263397 339.037689,251.786392 345.571594,260.638489 
	C341.488678,262.353394 337.645386,263.739258 333.802063,265.125122 
z"/>
<path fill="#F352C9" opacity="1.000000" stroke="none" 
	d="
M209.597046,200.754028 
	C208.938263,201.010208 208.115753,201.035095 207.302185,200.961273 
	C205.342148,200.783432 202.082214,199.776917 201.654602,200.489563 
	C199.806717,203.569153 197.510818,206.952332 200.217239,210.888138 
	C200.800705,211.736649 200.714539,213.045624 200.968079,214.536453 
	C195.835312,206.951370 190.689240,198.960541 185.479706,191.011307 
	C184.953461,190.208298 184.043884,189.656479 183.002747,189.127182 
	C182.428970,186.936981 182.164658,184.607666 181.900330,182.278366 
	C182.328583,182.041870 182.756836,181.805389 183.185089,181.568893 
	C191.935852,187.871887 200.686600,194.174866 209.597046,200.754028 
z"/>
<path fill="#8721C4" opacity="1.000000" stroke="none" 
	d="
M311.029114,300.020996 
	C310.342316,297.960327 309.655518,295.899689 309.218475,293.245605 
	C311.608521,291.038635 314.281036,289.791473 315.722656,287.696991 
	C316.899628,285.987091 316.606323,283.265137 316.964905,280.991913 
	C320.787872,285.686890 324.610870,290.381897 328.704407,295.611755 
	C329.045990,297.670532 329.117004,299.194489 328.860962,300.840820 
	C327.178406,301.152191 325.824127,301.350769 324.466980,301.527100 
	C323.442566,301.660126 322.181580,301.427490 321.431915,301.945343 
	C319.237061,303.461548 317.245209,305.271637 315.072205,306.621826 
	C313.656769,304.191711 312.342957,302.106354 311.029114,300.020996 
z"/>
<path fill="#9040D0" opacity="1.000000" stroke="none" 
	d="
M357.129578,245.994446 
	C356.429504,240.616013 355.729401,235.237564 355.543152,229.436768 
	C360.334900,228.266434 365.127258,230.856171 368.930786,227.030182 
	C369.459808,226.932236 369.988800,226.834274 370.662079,226.581940 
	C371.604065,230.922775 372.401764,235.417999 373.091553,240.698059 
	C368.452209,243.284592 363.940674,245.140488 359.364075,246.818924 
	C358.796387,247.027130 357.882843,246.292297 357.129578,245.994446 
z"/>
<path fill="#A526C8" opacity="1.000000" stroke="none" 
	d="
M316.913422,280.647278 
	C316.606323,283.265137 316.899628,285.987091 315.722656,287.696991 
	C314.281036,289.791473 311.608521,291.038635 309.186157,292.869141 
	C308.416992,292.503204 307.929932,291.920319 307.234894,290.759338 
	C305.097931,285.090302 303.168945,279.999329 301.239990,274.908356 
	C301.820160,273.913391 302.922699,272.898926 302.886353,271.927002 
	C302.757294,268.474548 304.255219,266.307678 307.693024,265.005676 
	C310.994263,270.085602 313.928101,275.194122 316.913422,280.647278 
z"/>
<path fill="#F99F7D" opacity="1.000000" stroke="none" 
	d="
M393.012848,192.971298 
	C395.342621,187.694656 397.672424,182.418015 400.710388,177.034912 
	C403.865692,177.741257 407.535400,174.193588 408.841736,178.761887 
	C409.587158,181.368668 409.633759,184.175293 409.994995,186.891922 
	C409.147095,192.364243 408.299164,197.836563 407.234375,203.250580 
	C407.001129,202.461853 406.984741,201.731461 406.984039,200.576965 
	C407.206573,197.408722 407.253448,194.910385 403.446075,194.550674 
	C399.949799,194.220337 396.489166,193.512711 393.012848,192.971298 
z"/>
<path fill="#3FD7E2" opacity="1.000000" stroke="none" 
	d="
M296.663147,530.023193 
	C294.314301,533.026978 291.890076,535.976013 289.650848,539.059387 
	C288.646210,540.442810 288.011780,542.095093 287.364075,543.911743 
	C283.895782,547.032898 280.272705,549.867554 276.649628,552.702271 
	C276.365906,552.532898 276.082214,552.363464 275.798523,552.194092 
	C279.369629,542.641785 282.940735,533.089539 287.076691,523.321167 
	C290.648773,525.411194 293.655945,527.717163 296.663147,530.023193 
z"/>
<path fill="#34CADF" opacity="1.000000" stroke="none" 
	d="
M247.390335,529.027893 
	C245.716537,527.291748 244.508514,525.389709 243.031509,523.726501 
	C241.574554,522.085815 239.845367,520.686951 237.903320,519.004883 
	C241.867554,514.704468 246.164124,510.581085 250.921051,506.521484 
	C251.900070,512.704163 255.367508,517.800049 257.232880,523.451721 
	C254.068024,525.290039 250.903152,527.128357 247.390335,529.027893 
z"/>
<path fill="#29BADB" opacity="1.000000" stroke="none" 
	d="
M257.558777,523.320312 
	C255.367508,517.800049 251.900070,512.704163 251.194366,506.329712 
	C253.362717,503.717194 255.718109,501.360229 258.709686,499.141113 
	C261.679077,504.238220 263.950043,509.228943 266.426910,514.115295 
	C266.724609,514.702698 268.138275,514.724365 269.034698,515.008240 
	C265.318024,517.735107 261.601349,520.461975 257.558777,523.320312 
z"/>
<path fill="#1FACD7" opacity="1.000000" stroke="none" 
	d="
M269.367126,514.950684 
	C268.138275,514.724365 266.724609,514.702698 266.426910,514.115295 
	C263.950043,509.228943 261.679077,504.238220 259.037292,499.081879 
	C258.798889,498.718445 258.869080,498.552124 259.267273,498.099762 
	C259.783508,497.667267 259.911835,497.479828 259.980347,497.251404 
	C262.084656,495.207336 264.188934,493.163269 266.611938,491.035339 
	C267.752472,492.862488 268.086273,495.314423 269.489807,496.580597 
	C273.337708,500.052094 275.486816,504.101105 275.839783,509.592285 
	C273.897980,511.596313 271.798767,513.244690 269.367126,514.950684 
z"/>
<path fill="#0C3781" opacity="1.000000" stroke="none" 
	d="
M184.092224,273.235352 
	C185.952393,273.625610 188.058945,274.026367 189.610764,275.175934 
	C195.395859,279.461609 200.998932,283.992950 206.881683,288.693481 
	C205.351685,288.969635 203.610291,288.984467 201.433456,288.601868 
	C201.358932,285.032654 199.310333,284.854462 196.969757,284.708618 
	C196.625717,284.103699 196.319260,283.782410 196.012817,283.461121 
	C195.830643,283.670776 195.648468,283.880432 195.466309,284.090088 
	C195.975006,284.395782 196.483688,284.701477 197.044556,285.338440 
	C198.397629,286.779877 199.698502,287.890076 200.999390,289.000275 
	C207.739334,295.703156 214.419983,302.467133 221.241653,309.085785 
	C225.280838,313.004761 229.542755,316.694153 233.793579,320.840210 
	C214.411789,308.329285 198.257172,291.995850 184.092224,273.235352 
z"/>
<path fill="#F66EAF" opacity="1.000000" stroke="none" 
	d="
M385.200775,221.008942 
	C386.271942,215.833755 387.343109,210.658585 388.699524,205.658783 
	C389.097443,207.425476 389.210114,209.016769 389.309784,210.424545 
	C394.033936,211.066498 398.215424,211.634720 402.461334,212.211685 
	C402.923706,211.418274 403.490112,210.446320 404.733643,208.312408 
	C404.879242,211.523651 404.960876,213.324295 405.042542,215.124954 
	C404.517059,218.890564 403.991577,222.656158 403.227844,226.351334 
	C401.489258,224.854858 400.170380,222.525238 398.452972,222.180328 
	C394.131439,221.312393 389.630066,221.340225 385.200775,221.008942 
z"/>
<path fill="#5D22B9" opacity="1.000000" stroke="none" 
	d="
M307.723541,425.135254 
	C308.554321,425.872925 308.997955,427.557739 309.761261,427.717773 
	C317.540283,429.348389 317.554840,429.278900 320.243530,425.975159 
	C322.207275,424.901459 324.090637,424.437592 326.223022,424.310730 
	C329.962830,424.758545 333.453674,424.869385 337.272949,425.044525 
	C337.052032,425.738251 336.625366,426.656311 335.933502,426.950348 
	C331.422180,428.867432 325.413239,428.503479 324.007629,435.014587 
	C317.096924,434.780304 310.186188,434.546051 303.049316,433.920837 
	C304.377075,430.811432 305.930939,428.093018 307.723541,425.135254 
z"/>
<path fill="#FCB665" opacity="1.000000" stroke="none" 
	d="
M410.254730,186.616043 
	C409.633759,184.175293 409.587158,181.368668 408.841736,178.761887 
	C407.535400,174.193588 403.865692,177.741257 401.004425,176.850006 
	C402.524933,173.287476 404.548981,169.848633 406.345306,166.294678 
	C406.968201,165.062286 407.026306,163.544434 407.033234,162.137939 
	C409.244446,159.387360 411.764832,156.655777 414.285217,153.924194 
	C414.789673,154.242737 415.294098,154.561295 415.798553,154.879852 
	C414.037170,165.366623 412.275787,175.853394 410.254730,186.616043 
z"/>
<path fill="#F461BE" opacity="1.000000" stroke="none" 
	d="
M385.121063,221.428787 
	C389.630066,221.340225 394.131439,221.312393 398.452972,222.180328 
	C400.170380,222.525238 401.489258,224.854858 403.009949,226.671112 
	C402.993591,227.828125 402.956879,228.594925 402.803223,229.730438 
	C399.744476,234.938995 396.098389,235.427277 391.579803,232.130157 
	C389.607361,230.690918 387.319366,229.684189 385.006042,228.137939 
	C384.905426,225.812759 384.973389,223.830704 385.121063,221.428787 
z"/>
<path fill="#3FD7E2" opacity="1.000000" stroke="none" 
	d="
M276.662903,383.272949 
	C276.800476,386.987122 276.575836,390.701477 276.309692,395.101990 
	C271.369293,395.101990 265.499817,395.101990 258.911011,395.267639 
	C257.709778,395.834259 257.227875,396.235229 256.746002,396.636230 
	C254.541245,396.005646 252.336487,395.375061 249.019638,394.426422 
	C258.754364,390.446564 267.527496,386.859863 276.662903,383.272949 
z"/>
<path fill="#C24ACD" opacity="1.000000" stroke="none" 
	d="
M368.921997,226.652161 
	C365.127258,230.856171 360.334900,228.266434 355.606750,228.994904 
	C355.074005,227.913132 354.991547,226.850845 354.877228,224.955292 
	C354.926086,221.734329 355.006805,219.346649 355.437256,216.913879 
	C357.993805,213.690979 360.548767,211.565079 364.597534,213.952927 
	C366.036072,218.059998 367.474640,222.167068 368.921997,226.652161 
z"/>
<path fill="#32B090" opacity="1.000000" stroke="none" 
	d="
M333.857727,265.487762 
	C337.645386,263.739258 341.488678,262.353394 345.737305,260.940094 
	C346.606506,261.394775 347.070404,261.876923 348.029327,262.610962 
	C349.421570,264.307007 350.318817,265.751129 350.952332,267.579498 
	C347.107758,271.660156 343.526917,275.356567 339.946106,279.052979 
	C337.935211,274.652130 335.924286,270.251251 333.857727,265.487762 
z"/>
<path fill="#F6829B" opacity="1.000000" stroke="none" 
	d="
M405.274658,214.806580 
	C404.960876,213.324295 404.879242,211.523651 404.733643,208.312408 
	C403.490112,210.446320 402.923706,211.418274 402.461334,212.211685 
	C398.215424,211.634720 394.033936,211.066498 389.309784,210.424545 
	C389.210114,209.016769 389.097443,207.425476 388.966919,205.396729 
	C389.348846,203.305145 389.748688,201.651016 390.607605,200.065247 
	C394.000580,201.131393 397.022552,201.930206 399.844879,203.179825 
	C403.014679,204.583313 405.243469,203.853226 406.968353,201.001068 
	C406.984741,201.731461 407.001129,202.461853 407.018250,203.554855 
	C406.514954,207.441040 406.010895,210.964615 405.274658,214.806580 
z"/>
<path fill="#F352C9" opacity="1.000000" stroke="none" 
	d="
M364.613892,213.597504 
	C360.548767,211.565079 357.993805,213.690979 355.392578,216.455505 
	C355.018677,213.273193 355.215637,210.489944 354.994476,207.740341 
	C354.858368,206.047867 354.083618,204.406784 353.595612,202.742630 
	C354.790771,199.562881 355.985931,196.383148 357.438995,192.517242 
	C359.919189,199.665070 362.274689,206.453568 364.613892,213.597504 
z"/>
<path fill="#0C3781" opacity="1.000000" stroke="none" 
	d="
M214.025848,105.411629 
	C214.757950,106.182419 215.919495,107.338562 215.902054,108.476654 
	C215.706635,121.232651 215.359924,133.986832 214.957245,146.738434 
	C214.914322,148.097809 214.258606,149.437836 213.498322,150.880646 
	C213.375580,135.912506 213.641663,120.850555 214.025848,105.411629 
z"/>
<path fill="#C24ACD" opacity="1.000000" stroke="none" 
	d="
M390.099457,265.386353 
	C391.031586,263.633789 391.987854,262.302124 392.880890,260.929291 
	C393.691010,259.683929 394.432190,258.393738 395.562164,257.079346 
	C394.970551,263.077637 393.992096,269.115662 393.079987,275.163635 
	C392.418671,279.548676 391.845154,283.946899 390.727051,288.575806 
	C389.111603,285.496307 388.001556,282.180267 386.891174,278.560669 
	C386.870941,277.854218 386.851074,277.451385 386.831177,277.048553 
	C387.919495,273.295502 389.007812,269.542419 390.099457,265.386353 
z"/>
<path fill="#34CADF" opacity="1.000000" stroke="none" 
	d="
M296.940521,529.805725 
	C293.655945,527.717163 290.648773,525.411194 287.294312,523.041565 
	C287.345154,521.377258 287.743225,519.776611 288.200134,517.752197 
	C288.280975,517.097778 288.405457,516.958313 288.986877,517.153320 
	C294.775085,515.900208 297.952637,520.416992 302.154388,522.204041 
	C300.508881,524.665466 298.863403,527.126831 296.940521,529.805725 
z"/>
<path fill="#0C3781" opacity="1.000000" stroke="none" 
	d="
M195.372223,343.138184 
	C201.841446,344.978302 208.229279,347.152802 214.823059,349.636475 
	C213.403763,351.539459 212.360489,352.643921 215.514633,354.122101 
	C219.533676,356.005493 223.177567,358.689423 226.995850,361.382874 
	C216.435989,355.649139 205.863419,349.560822 195.372223,343.138184 
z"/>
<path fill="#0C3781" opacity="1.000000" stroke="none" 
	d="
M353.399811,203.126709 
	C354.083618,204.406784 354.858368,206.047867 354.994476,207.740341 
	C355.215637,210.489944 355.018677,213.273193 355.042847,216.500610 
	C355.006805,219.346649 354.926086,221.734329 354.789856,224.565659 
	C351.113708,225.333435 351.006531,227.913055 350.824799,230.710602 
	C350.668701,233.113724 350.010437,235.484253 349.654907,237.427887 
	C349.654907,232.781219 349.654907,227.699188 349.391113,222.324707 
	C350.486237,215.858429 351.845123,209.684601 353.399811,203.126709 
z"/>
<path fill="#84D639" opacity="1.000000" stroke="none" 
	d="
M329.187988,300.718414 
	C329.117004,299.194489 329.045990,297.670532 329.026215,295.770874 
	C331.782623,296.556061 334.487823,297.716949 337.529205,298.884460 
	C339.462830,300.054504 341.060303,301.217926 342.780151,303.008728 
	C341.579163,305.733154 340.255798,307.830170 338.652527,309.927216 
	C337.998322,309.923401 337.624023,309.919556 336.973999,309.727570 
	C334.840759,307.287964 332.983185,305.036499 331.108521,302.449280 
	C330.449829,301.664276 329.808228,301.215088 329.159363,300.750305 
	C329.152161,300.734772 329.187988,300.718414 329.187988,300.718414 
z"/>
<path fill="#A526C8" opacity="1.000000" stroke="none" 
	d="
M386.891541,278.864258 
	C388.001556,282.180267 389.111603,285.496307 390.597107,288.904907 
	C390.758179,291.464203 390.543762,293.930939 390.091248,296.494873 
	C389.554718,297.393280 389.256287,298.194458 388.693970,298.806305 
	C386.807007,298.303192 385.183960,297.989441 382.857544,297.539734 
	C382.857544,297.139191 382.857544,295.955994 382.850403,294.360901 
	C384.192688,288.920776 385.542114,283.892517 386.891541,278.864258 
z"/>
<path fill="#0C3781" opacity="1.000000" stroke="none" 
	d="
M218.595703,83.670151 
	C219.267303,93.111305 219.617752,102.607086 219.895081,112.551926 
	C218.882202,111.873268 217.532944,110.884621 217.092453,109.587395 
	C216.303879,107.265076 216.062561,104.756943 215.240005,102.137436 
	C216.016541,95.873863 217.145538,89.799324 218.595703,83.670151 
z"/>
<path fill="#110A70" opacity="1.000000" stroke="none" 
	d="
M257.111267,396.821960 
	C257.227875,396.235229 257.709778,395.834259 258.428528,395.353638 
	C269.424438,395.440613 280.183472,395.607208 291.401672,395.803131 
	C291.110718,396.221130 290.364441,396.938141 289.609863,396.946991 
	C283.041168,397.024078 276.470337,396.920166 269.901764,397.001953 
	C268.345459,397.021362 266.795319,397.537201 265.103058,398.184326 
	C262.468018,398.031891 259.972290,397.519806 257.111267,396.821960 
z"/>
<path fill="#5D22B9" opacity="1.000000" stroke="none" 
	d="
M388.957855,298.995667 
	C389.256287,298.194458 389.554718,297.393280 389.932465,296.859009 
	C390.032806,302.753510 390.053864,308.381134 390.110016,314.472717 
	C390.006561,316.863678 389.867950,318.790649 389.373840,320.531555 
	C388.980835,319.191650 388.943359,318.037781 388.928528,316.428406 
	C388.953400,310.313812 388.955627,304.654755 388.957855,298.995667 
z"/>
<path fill="#0C3781" opacity="1.000000" stroke="none" 
	d="
M240.003082,325.454926 
	C243.164169,324.610474 245.878464,325.221222 246.997284,329.265320 
	C244.732971,328.327667 242.450638,327.035095 240.003082,325.454926 
z"/>
<path fill="#0C3781" opacity="1.000000" stroke="none" 
	d="
M233.998688,321.452698 
	C236.623398,320.790710 239.319717,320.588776 239.855194,324.786438 
	C237.948456,324.031128 236.055542,322.885681 233.998688,321.452698 
z"/>
<path fill="#5D22B9" opacity="1.000000" stroke="none" 
	d="
M310.056335,421.300018 
	C310.175842,421.615540 310.124054,422.158295 309.789398,422.644745 
	C309.632690,422.234711 309.758820,421.880981 310.056335,421.300018 
z"/>
<path fill="#7023BB" opacity="1.000000" stroke="none" 
	d="
M302.566895,404.192383 
	C302.740967,403.922821 302.989746,403.881317 303.421753,404.027435 
	C303.267151,404.182556 302.946014,404.251038 302.566895,404.192383 
z"/>
<path fill="#29BADB" opacity="1.000000" stroke="none" 
	d="
M259.782715,497.272034 
	C259.911835,497.479828 259.783508,497.667267 259.442505,497.893341 
	C259.214569,497.670807 259.313019,497.444031 259.782715,497.272034 
z"/>
<path fill="#5D22B9" opacity="1.000000" stroke="none" 
	d="
M309.438354,422.740295 
	C309.540955,423.000000 309.356873,423.360504 308.864532,423.807495 
	C308.754700,423.542969 308.953186,423.192017 309.438354,422.740295 
z"/>
<path fill="#7023BB" opacity="1.000000" stroke="none" 
	d="
M316.199036,404.389954 
	C316.181335,404.256104 316.470032,404.103821 316.613159,404.171265 
	C316.756317,404.238678 316.611420,404.541229 316.611420,404.541229 
	C316.611420,404.541229 316.216705,404.523773 316.199036,404.389954 
z"/>
<path fill="#FCB665" opacity="1.000000" stroke="none" 
	d="
M405.797394,162.575226 
	C405.796356,162.654633 405.614868,162.716263 405.638977,162.657272 
	C405.663055,162.598282 405.798431,162.495819 405.797394,162.575226 
z"/>
<path fill="#0D29D8" opacity="1.000000" stroke="none" 
	d="
M301.158203,274.606537 
	C303.168945,279.999329 305.097931,285.090302 307.015137,290.564880 
	C298.401733,291.293579 291.031830,287.158173 283.320343,284.339844 
	C278.636566,282.628113 274.102051,280.507965 269.622589,278.228699 
	C273.791168,273.126556 277.861969,268.387299 281.873108,263.598145 
	C283.680023,261.440735 285.367981,259.183746 287.109894,256.971954 
	C289.529694,258.290924 291.949493,259.609863 294.731445,260.949036 
	C295.093567,260.969269 295.045074,260.998322 295.055420,261.284424 
	C295.633087,262.052460 296.200439,262.534393 296.767761,263.016296 
	C297.477203,264.766235 298.186646,266.516174 298.979004,268.973389 
	C299.696930,270.806244 300.331940,271.931793 300.966980,273.057343 
	C301.003448,273.473145 301.039978,273.888916 301.158203,274.606537 
z"/>
<path fill="#5A36D2" opacity="1.000000" stroke="none" 
	d="
M254.980606,269.074280 
	C250.706772,265.976501 246.432922,262.878723 242.255524,259.263062 
	C243.532227,256.052094 244.380798,253.143723 245.960541,250.709976 
	C249.449310,245.335144 253.306259,240.199310 257.013000,234.965973 
	C260.780548,237.619598 264.548096,240.273224 268.699768,243.336060 
	C269.720642,244.168350 270.357391,244.591415 270.994171,245.014496 
	C270.994171,245.014496 271.220581,245.385468 270.939453,245.757568 
	C269.338684,247.598236 267.948639,249.010239 266.713959,250.547104 
	C264.131256,253.762009 262.019409,257.481995 258.983856,260.169739 
	C256.094391,262.728119 254.375397,265.221405 254.980606,269.074280 
z"/>
<path fill="#2D2FD6" opacity="1.000000" stroke="none" 
	d="
M287.020996,256.634918 
	C285.367981,259.183746 283.680023,261.440735 281.873108,263.598145 
	C277.861969,268.387299 273.791168,273.126556 269.406189,277.941406 
	C266.791779,276.566406 264.515869,275.136169 262.330688,273.197723 
	C265.498993,268.223785 268.722473,263.849792 271.604401,259.261230 
	C273.641632,256.017578 275.216248,252.483353 276.997375,249.078827 
	C280.308929,251.485184 283.620514,253.891541 287.020996,256.634918 
z"/>
<path fill="#6E3BD1" opacity="1.000000" stroke="none" 
	d="
M256.841187,234.674225 
	C253.306259,240.199310 249.449310,245.335144 245.960541,250.709976 
	C244.380798,253.143723 243.532227,256.052094 242.045670,258.990204 
	C239.327499,257.260986 236.915634,255.286713 234.238663,253.092010 
	C235.721146,249.946640 237.270569,246.878311 239.260590,244.128860 
	C242.634476,239.467453 247.430161,235.777557 248.904739,229.448883 
	C251.534622,230.857239 254.102020,232.619843 256.841187,234.674225 
z"/>
<path fill="#4032D5" opacity="1.000000" stroke="none" 
	d="
M276.679962,248.969849 
	C275.216248,252.483353 273.641632,256.017578 271.604401,259.261230 
	C268.722473,263.849792 265.498993,268.223785 262.133423,272.911835 
	C259.660278,271.985870 257.475220,270.837585 255.135376,269.381775 
	C254.375397,265.221405 256.094391,262.728119 258.983856,260.169739 
	C262.019409,257.481995 264.131256,253.762009 266.713959,250.547104 
	C267.948639,249.010239 269.338684,247.598236 271.000916,245.966019 
	C273.016479,246.821854 274.689514,247.841370 276.679962,248.969849 
z"/>
<path fill="#4032D5" opacity="1.000000" stroke="none" 
	d="
M270.893921,244.736115 
	C270.357391,244.591415 269.720642,244.168350 269.028900,243.439667 
	C269.580505,243.575272 270.187073,244.016495 270.893921,244.736115 
z"/>
<path fill="#16748E" opacity="1.000000" stroke="none" 
	d="
M295.980225,325.024719 
	C287.890869,323.472778 279.801514,321.920807 271.362183,319.773010 
	C272.675995,309.781982 274.339752,300.386810 276.003510,290.991608 
	C285.393951,293.669830 294.784424,296.348022 304.539978,299.396912 
	C301.047577,307.553467 298.831848,315.646881 300.612030,324.701538 
	C298.866272,324.823364 297.423248,324.924042 295.980225,325.024719 
z"/>
<path fill="#2B9F90" opacity="1.000000" stroke="none" 
	d="
M241.188568,308.540466 
	C241.985001,300.122314 243.009354,291.941650 244.064438,283.288086 
	C250.477478,284.259155 256.859802,285.703217 263.758972,287.394531 
	C264.481812,287.834015 264.723816,287.953247 265.001831,287.999512 
	C265.321533,288.137726 265.641205,288.275940 265.796631,288.852112 
	C262.474213,298.273285 261.415863,307.531769 261.999908,317.005493 
	C261.547821,316.956940 261.095764,316.908356 260.187195,316.618805 
	C259.521759,316.176910 259.274292,316.052399 258.988342,316.004303 
	C253.131058,313.595520 247.273758,311.186737 241.188568,308.540466 
z"/>
<path fill="#0B5C8F" opacity="1.000000" stroke="none" 
	d="
M296.281982,325.313904 
	C297.423248,324.924042 298.866272,324.823364 300.612030,324.701538 
	C298.831848,315.646881 301.047577,307.553467 304.935120,299.407898 
	C306.727661,299.362488 308.490173,299.676758 310.640900,300.006042 
	C312.342957,302.106354 313.656769,304.191711 315.073059,306.981750 
	C317.794495,312.773285 320.413483,317.860107 323.032471,322.946960 
	C321.565399,323.959961 320.119141,325.807495 318.627747,325.844696 
	C311.286316,326.027863 303.932922,325.730713 296.281982,325.313904 
M304.515137,324.413940 
	C304.515137,324.413940 304.579315,324.521698 304.515137,324.413940 
z"/>
<path fill="#218B90" opacity="1.000000" stroke="none" 
	d="
M262.316711,317.179779 
	C261.415863,307.531769 262.474213,298.273285 265.963715,289.055786 
	C269.271484,289.540436 272.247955,290.259247 275.613953,290.984833 
	C274.339752,300.386810 272.675995,309.781982 271.015625,319.603943 
	C268.223877,319.138458 265.428711,318.246246 262.316711,317.179779 
z"/>
<path fill="#218B90" opacity="1.000000" stroke="none" 
	d="
M264.902283,287.806732 
	C264.723816,287.953247 264.481812,287.834015 264.153290,287.482910 
	C264.345856,287.266693 264.603180,287.363373 264.902283,287.806732 
z"/>
<path fill="#1F0E9C" opacity="1.000000" stroke="none" 
	d="
M297.348083,479.740845 
	C293.092316,480.740875 289.055695,481.436249 284.620850,482.121002 
	C283.792267,481.923248 283.362000,481.736115 282.931702,481.548981 
	C288.617340,474.809296 295.937836,470.256805 303.603516,466.195221 
	C312.203156,461.638824 320.857605,457.185913 329.450897,452.617828 
	C330.090271,452.277954 330.429718,451.373749 330.947906,450.373230 
	C334.065033,449.375580 337.142822,448.736481 340.614319,448.056335 
	C345.090912,453.298584 344.720032,454.188660 338.292389,456.833130 
	C332.376221,459.267242 326.436310,461.733856 320.820435,464.766693 
	C318.300446,466.127625 316.697937,469.091675 314.390961,470.975372 
	C312.776703,472.293457 310.674011,473.013367 308.487366,474.158691 
	C310.607971,474.829773 312.713257,475.496033 314.497498,476.619751 
	C310.439606,477.741791 306.702789,478.406372 302.965942,479.070923 
	C301.166382,479.192657 299.366852,479.314392 297.348083,479.740845 
z"/>
<path fill="#1FACD7" opacity="1.000000" stroke="none" 
	d="
M336.352661,498.843842 
	C332.136230,496.484283 330.681671,490.113251 323.764282,490.990417 
	C322.902344,487.093079 322.364594,483.229370 322.193878,479.349487 
	C322.139862,478.121216 323.065796,476.849823 323.855835,475.359680 
	C328.155304,474.470886 332.142273,473.820557 336.523315,473.132874 
	C336.808350,481.566345 336.699280,490.037170 336.352661,498.843842 
z"/>
<path fill="#129AD2" opacity="1.000000" stroke="none" 
	d="
M302.809143,479.386841 
	C306.702789,478.406372 310.439606,477.741791 314.580566,476.991608 
	C316.218872,476.806366 317.453033,476.706757 318.936127,476.799011 
	C317.647522,484.182495 316.110016,491.374084 314.239868,498.470581 
	C309.756470,495.653900 306.655457,490.549774 300.411407,492.474030 
	C300.112213,492.566223 299.406189,491.338287 298.889587,490.725159 
	C300.143860,487.051025 301.398102,483.376923 302.809143,479.386841 
z"/>
<path fill="#5FC04A" opacity="1.000000" stroke="none" 
	d="
M260.353882,359.949341 
	C259.986176,358.925751 260.322968,357.571411 259.927399,357.305145 
	C254.658661,353.758820 251.071899,344.645142 253.217026,338.917267 
	C253.586090,337.931824 255.706177,337.459839 257.103638,337.032806 
	C259.674927,336.247040 262.310333,335.670868 264.927155,334.610535 
	C266.979523,334.147308 269.023712,334.080902 271.950195,333.995605 
	C276.376465,334.368378 279.920441,334.759949 283.229553,335.125610 
	C284.195740,344.438904 285.103882,353.192596 285.546814,361.997375 
	C280.408844,362.080170 275.736145,362.111908 271.063416,362.143616 
	C267.614929,361.470520 264.166443,360.797424 260.353882,359.949341 
z"/>
<path fill="#43B15B" opacity="1.000000" stroke="none" 
	d="
M286.012024,361.946289 
	C285.103882,353.192596 284.195740,344.438904 283.229553,335.125610 
	C279.920441,334.759949 276.376465,334.368378 272.386292,333.959534 
	C279.193573,333.291199 286.440002,332.538483 293.703644,332.033447 
	C297.139343,331.794586 300.608002,332.029755 304.949097,332.031067 
	C307.422241,332.085419 309.007996,332.158813 310.045929,332.206879 
	C309.671478,338.059662 308.536926,343.479675 309.255737,348.641602 
	C309.784729,352.440582 307.060150,357.453156 312.137085,360.189575 
	C309.335297,360.778778 306.533478,361.367981 302.878082,361.983124 
	C296.686981,361.988159 291.349518,361.967224 286.012024,361.946289 
z"/>
<path fill="#3D1CB6" opacity="1.000000" stroke="none" 
	d="
M347.018585,354.978058 
	C346.241119,353.783478 345.463654,352.588898 344.106567,351.109802 
	C343.320099,350.219055 343.113281,349.612823 343.220459,348.970215 
	C344.506165,344.276489 344.478790,344.237427 350.410736,340.077759 
	C353.881134,337.644165 357.455597,335.359039 361.251770,333.082428 
	C361.986084,333.453033 362.451904,333.748322 362.997986,334.399567 
	C365.721832,336.136292 368.365417,337.517059 371.356964,338.991730 
	C373.122559,339.777191 374.531006,340.488220 375.959686,341.156006 
	C378.675690,342.425537 381.403290,343.670288 383.842285,345.119202 
	C381.243652,348.092224 379.341309,351.420715 376.526611,353.534241 
	C370.969452,357.706970 364.907074,361.206818 358.737823,364.860901 
	C354.620880,361.483917 350.819733,358.230988 347.018585,354.978058 
z"/>
<path fill="#1FACD7" opacity="1.000000" stroke="none" 
	d="
M348.019165,382.714844 
	C341.627991,384.841217 335.236816,386.967590 328.354797,388.919189 
	C327.597382,388.874878 327.330811,389.005402 327.064240,389.135925 
	C327.064240,389.135925 327.010559,389.105377 326.630920,389.065399 
	C324.848328,387.752197 322.681305,386.721466 322.185852,385.160217 
	C320.704437,380.492371 320.017670,375.577576 318.695160,370.850281 
	C318.370239,369.688965 316.804688,368.874725 315.809509,367.900909 
	C324.900452,364.242310 333.991364,360.583679 343.751892,357.131683 
	C345.947632,365.558868 347.473785,373.779449 348.999939,382.000000 
	C348.999939,382.000000 349.000000,382.000000 348.800232,382.064575 
	C348.344757,382.262939 348.151001,382.458160 348.019165,382.714844 
z"/>
<path fill="#1E9C6D" opacity="1.000000" stroke="none" 
	d="
M342.906494,349.006622 
	C343.113281,349.612823 343.320099,350.219055 343.824799,350.966705 
	C341.658112,352.262695 339.283386,353.702881 336.710205,354.511963 
	C331.463043,356.161774 326.108948,357.471558 320.575867,358.549744 
	C320.535278,356.887054 321.269165,355.344757 320.813385,354.344543 
	C317.020844,346.021118 320.423553,338.128418 321.979034,330.120178 
	C323.403992,330.061279 324.828949,330.002380 326.974915,330.074493 
	C329.412445,331.870941 331.128998,333.536377 332.864594,335.566956 
	C336.224609,340.290283 339.565552,344.648468 342.906494,349.006622 
z"/>
<path fill="#29BADB" opacity="1.000000" stroke="none" 
	d="
M315.451172,367.946655 
	C316.804688,368.874725 318.370239,369.688965 318.695160,370.850281 
	C320.017670,375.577576 320.704437,380.492371 322.185852,385.160217 
	C322.681305,386.721466 324.848328,387.752197 326.654724,389.045715 
	C320.623932,390.613525 314.189697,392.161041 307.361572,393.653625 
	C306.524048,387.531464 306.043213,381.466522 305.673706,375.394836 
	C305.612244,374.384613 306.035980,373.344910 306.051086,372.110413 
	C308.942078,370.598785 312.017456,369.295593 315.451172,367.946655 
z"/>
<path fill="#29A268" opacity="1.000000" stroke="none" 
	d="
M321.543152,330.073975 
	C320.423553,338.128418 317.020844,346.021118 320.813385,354.344543 
	C321.269165,355.344757 320.535278,356.887054 320.190430,358.516663 
	C317.658386,359.274933 315.288666,359.694641 312.528015,360.151947 
	C307.060150,357.453156 309.784729,352.440582 309.255737,348.641602 
	C308.536926,343.479675 309.671478,338.059662 310.045929,332.206879 
	C309.007996,332.158813 307.422241,332.085419 305.416931,332.003967 
	C310.367340,331.339874 315.737335,330.683807 321.543152,330.073975 
z"/>
<path fill="#129AD2" opacity="1.000000" stroke="none" 
	d="
M349.361511,381.969482 
	C347.473785,373.779449 345.947632,365.558868 344.120483,357.080566 
	C344.697754,356.296448 345.576050,355.770111 346.736450,355.110901 
	C350.819733,358.230988 354.620880,361.483917 358.910950,365.140137 
	C361.989655,367.409882 364.579437,369.276337 367.169250,371.142792 
	C366.335510,372.281464 365.747101,373.873474 364.625610,374.480438 
	C359.742737,377.122986 354.704742,379.478943 349.361511,381.969482 
z"/>
<path fill="#0C3781" opacity="1.000000" stroke="none" 
	d="
M285.546814,361.997375 
	C291.349518,361.967224 296.686981,361.988159 302.483093,362.062561 
	C299.575378,362.410400 296.210510,362.929565 292.842316,362.952271 
	C285.788269,362.999817 278.732483,362.785828 271.370422,362.411438 
	C275.736145,362.111908 280.408844,362.080170 285.546814,361.997375 
z"/>
<path fill="#7023BB" opacity="1.000000" stroke="none" 
	d="
M332.845551,335.201813 
	C331.128998,333.536377 329.412445,331.870941 327.400635,330.029785 
	C325.976624,327.612305 324.847900,325.370544 323.375824,323.037842 
	C320.413483,317.860107 317.794495,312.773285 315.174683,307.326508 
	C317.245209,305.271637 319.237061,303.461548 321.431915,301.945343 
	C322.181580,301.427490 323.442566,301.660126 324.466980,301.527100 
	C325.824127,301.350769 327.178406,301.152191 328.860962,300.840820 
	C329.187988,300.718414 329.152161,300.734772 329.134796,301.107361 
	C329.786835,301.914978 330.456207,302.350006 331.125610,302.785065 
	C332.983185,305.036499 334.840759,307.287964 337.008240,310.016388 
	C337.865967,310.671295 338.413818,310.849243 339.003052,311.371155 
	C341.166168,314.258057 343.287903,316.800964 345.195831,319.683044 
	C340.683075,323.509888 336.384094,326.997559 332.007660,330.548096 
	C332.193695,331.581299 332.519623,333.391541 332.845551,335.201813 
z"/>
<path fill="#218B90" opacity="1.000000" stroke="none" 
	d="
M259.091553,316.199524 
	C259.274292,316.052399 259.521759,316.176910 259.854156,316.543518 
	C259.657166,316.752563 259.396210,316.647736 259.091553,316.199524 
z"/>
<path fill="#0D29D8" opacity="1.000000" stroke="none" 
	d="
M386.891174,278.560669 
	C385.542114,283.892517 384.192688,288.920776 382.558228,294.435486 
	C381.877808,295.001465 381.482452,295.080933 381.087067,295.160400 
	C377.758270,291.277161 374.249634,287.529846 371.170807,283.457581 
	C369.432739,281.158661 368.402008,278.324951 367.397400,275.438904 
	C373.304047,278.776367 381.911804,276.583466 383.989014,271.006683 
	C384.702332,272.960205 385.415680,274.913727 386.480103,276.957886 
	C386.851074,277.451385 386.870941,277.854218 386.891174,278.560669 
z"/>
<path fill="#5A36D2" opacity="1.000000" stroke="none" 
	d="
M361.224487,262.950104 
	C360.502106,260.546082 359.779694,258.142059 359.458557,255.355835 
	C365.164551,251.959244 370.769226,250.233032 376.952942,250.993576 
	C377.682678,253.380829 378.412384,255.768097 378.739929,258.569946 
	C372.633331,260.306396 366.928894,261.628235 361.224487,262.950104 
z"/>
<path fill="#4032D5" opacity="1.000000" stroke="none" 
	d="
M361.219727,263.305908 
	C366.928894,261.628235 372.633331,260.306396 378.760132,258.964355 
	C380.491821,262.664429 381.801086,266.384705 382.820557,270.362183 
	C381.706909,269.470337 380.883026,268.321320 380.498749,267.785370 
	C377.625732,268.262787 375.371704,269.110596 373.228882,268.887939 
	C369.563721,268.507080 367.260651,269.782074 365.888611,273.067108 
	C364.330719,269.931976 362.772827,266.796844 361.219727,263.305908 
z"/>
<path fill="#6E3BD1" opacity="1.000000" stroke="none" 
	d="
M376.940796,250.618759 
	C370.769226,250.233032 365.164551,251.959244 359.489899,254.975983 
	C358.430573,252.239868 357.741150,249.501373 357.090668,246.378662 
	C357.882843,246.292297 358.796387,247.027130 359.364075,246.818924 
	C363.940674,245.140488 368.452209,243.284592 373.107544,241.085754 
	C374.463867,243.873734 375.696259,247.058838 376.940796,250.618759 
z"/>
<path fill="#F8918C" opacity="1.000000" stroke="none" 
	d="
M406.984039,200.576965 
	C405.243469,203.853226 403.014679,204.583313 399.844879,203.179825 
	C397.022552,201.930206 394.000580,201.131393 390.840698,199.779419 
	C391.266205,197.459305 391.917786,195.493408 392.791107,193.249405 
	C396.489166,193.512711 399.949799,194.220337 403.446075,194.550674 
	C407.253448,194.910385 407.206573,197.408722 406.984039,200.576965 
z"/>
<path fill="#2D2FD6" opacity="1.000000" stroke="none" 
	d="
M366.027344,273.309509 
	C367.260651,269.782074 369.563721,268.507080 373.228882,268.887939 
	C375.371704,269.110596 377.625732,268.262787 380.498749,267.785370 
	C380.883026,268.321320 381.706909,269.470337 382.832886,270.778961 
	C383.135040,270.938538 383.563477,270.955872 383.776245,270.981262 
	C381.911804,276.583466 373.304047,278.776367 367.369446,275.076080 
	C366.719849,274.521606 366.442963,274.036774 366.027344,273.309509 
z"/>
<path fill="#1FACD7" opacity="1.000000" stroke="none" 
	d="
M385.948273,380.874420 
	C389.428101,382.006195 392.907928,383.137970 396.270905,384.715820 
	C389.106598,390.450195 382.059113,395.738495 375.009949,400.613159 
	C374.545563,398.177948 374.702637,395.614990 373.500793,394.239075 
	C370.252960,390.520905 366.427002,387.307648 362.830444,383.894073 
	C365.525940,381.186218 368.221466,378.478363 371.100281,375.482849 
	C375.555481,376.806213 379.827393,378.417267 384.450073,380.103729 
	C384.800781,380.179169 384.858856,380.151947 384.956787,380.354065 
	C385.287994,380.843567 385.585846,380.949677 385.948273,380.874420 
z"/>
<path fill="#3112B6" opacity="1.000000" stroke="none" 
	d="
M367.478149,371.166687 
	C364.579437,369.276337 361.989655,367.409882 359.226715,365.264191 
	C364.907074,361.206818 370.969452,357.706970 376.526611,353.534241 
	C379.341309,351.420715 381.243652,348.092224 384.254822,345.124847 
	C386.616913,344.969635 388.282593,345.002625 389.948303,345.035583 
	C391.099274,345.599731 392.250275,346.163849 393.701843,346.867462 
	C395.032257,353.567261 393.638855,356.110260 387.406250,359.297485 
	C384.324829,360.873322 381.260925,362.492004 378.261108,364.216583 
	C374.848511,366.178436 371.653259,368.385132 371.254639,372.977692 
	C369.899384,372.412598 368.843231,371.801575 367.478149,371.166687 
z"/>
<path fill="#29BADB" opacity="1.000000" stroke="none" 
	d="
M362.542236,384.053467 
	C366.427002,387.307648 370.252960,390.520905 373.500793,394.239075 
	C374.702637,395.614990 374.545563,398.177948 374.801880,400.876038 
	C371.057648,403.591003 367.519745,405.629456 363.790100,407.409912 
	C359.684021,402.736694 355.769684,398.321381 351.855377,393.906097 
	C355.321594,390.675018 358.787811,387.443939 362.542236,384.053467 
z"/>
<path fill="#3FD7E2" opacity="1.000000" stroke="none" 
	d="
M325.974030,423.973755 
	C324.090637,424.437592 322.207275,424.901459 320.134949,425.684448 
	C317.080780,425.937500 317.561768,424.886139 319.166504,423.435272 
	C324.388855,418.713745 329.604523,413.984711 334.804688,409.238800 
	C337.072784,407.168823 339.297058,405.050903 341.698303,402.712524 
	C342.381989,402.103210 342.908600,401.736115 343.710815,401.625427 
	C343.214996,404.078888 342.443604,406.275940 341.672211,408.473022 
	C342.528198,407.629700 343.384186,406.786377 344.240173,405.943054 
	C345.817413,408.927124 347.394653,411.911163 348.712646,415.132141 
	C340.960266,418.237274 333.467133,421.105530 325.974030,423.973755 
z"/>
<path fill="#34CADF" opacity="1.000000" stroke="none" 
	d="
M348.971893,414.895203 
	C347.394653,411.911163 345.817413,408.927124 344.240173,405.943054 
	C343.384186,406.786377 342.528198,407.629700 341.672211,408.473022 
	C342.443604,406.275940 343.214996,404.078888 344.003571,401.509766 
	C346.438721,398.830750 348.856659,396.523712 351.565002,394.061401 
	C355.769684,398.321381 359.684021,402.736694 363.444397,407.544678 
	C358.517609,410.256622 353.744751,412.575928 348.971893,414.895203 
z"/>
<path fill="#29BADB" opacity="1.000000" stroke="none" 
	d="
M327.313660,389.178680 
	C327.330811,389.005402 327.597382,388.874878 327.960388,388.927368 
	C327.892273,389.147369 327.727661,389.184418 327.313660,389.178680 
z"/>
<path fill="#129AD2" opacity="1.000000" stroke="none" 
	d="
M348.238861,382.692719 
	C348.151001,382.458160 348.344757,382.262939 348.800232,382.064575 
	C348.924408,382.308289 348.743927,382.531830 348.238861,382.692719 
z"/>
<path fill="#1FACD7" opacity="1.000000" stroke="none" 
	d="
M298.639984,491.001221 
	C299.406189,491.338287 300.112213,492.566223 300.411407,492.474030 
	C306.655457,490.549774 309.756470,495.653900 313.973572,498.725159 
	C312.241028,503.295166 310.442169,507.515503 308.235901,511.653015 
	C307.118713,510.675629 306.570526,509.545654 305.670685,508.927795 
	C302.064789,506.452057 298.349792,504.135193 294.675110,501.759583 
	C295.913544,498.265503 297.151978,494.771393 298.639984,491.001221 
z"/>
<path fill="#29BADB" opacity="1.000000" stroke="none" 
	d="
M294.464539,502.048035 
	C298.349792,504.135193 302.064789,506.452057 305.670685,508.927795 
	C306.570526,509.545654 307.118713,510.675629 307.982544,511.897766 
	C306.324463,515.414246 304.512390,518.603271 302.427338,521.998169 
	C297.952637,520.416992 294.775085,515.900208 289.134918,517.120239 
	C290.703644,512.008118 292.478790,507.172333 294.464539,502.048035 
z"/>
<path fill="#063782" opacity="1.000000" stroke="none" 
	d="
M348.712646,415.132141 
	C353.744751,412.575928 358.517609,410.256622 363.636169,407.802612 
	C367.519745,405.629456 371.057648,403.591003 374.803589,401.289673 
	C382.059113,395.738495 389.106598,390.450195 396.440735,385.010620 
	C403.850220,384.908539 410.973022,384.957672 418.568909,385.017151 
	C414.283020,389.402100 409.879059,394.268677 404.673767,398.024872 
	C398.392242,402.557739 391.590546,406.454437 384.710388,410.044647 
	C379.789276,412.612579 374.368591,414.223083 368.664520,416.629395 
	C358.091919,419.120667 348.021942,421.226624 337.971710,423.422668 
	C337.536652,423.517761 337.282776,424.442169 336.944519,424.980225 
	C333.453674,424.869385 329.962830,424.758545 326.223022,424.310730 
	C333.467133,421.105530 340.960266,418.237274 348.712646,415.132141 
z"/>
<path fill="#2319B2" opacity="1.000000" stroke="none" 
	d="
M385.826721,380.677216 
	C385.585846,380.949677 385.287994,380.843567 384.966736,380.323547 
	C385.203827,380.115387 385.479279,380.245087 385.826721,380.677216 
z"/>
<path fill="#3D1CB6" opacity="1.000000" stroke="none" 
	d="
M337.272949,425.044556 
	C337.282776,424.442169 337.536652,423.517761 337.971710,423.422668 
	C348.021942,421.226624 358.091919,419.120667 368.575073,416.995667 
	C365.287872,419.954712 361.623535,422.967651 357.867004,425.860870 
	C354.997620,428.070770 352.011505,430.129089 349.036377,432.596069 
	C345.942108,433.619080 342.888763,434.300873 339.419006,434.993469 
	C334.314392,435.014282 329.626221,435.024231 324.472839,435.024384 
	C325.413239,428.503479 331.422180,428.867432 335.933502,426.950348 
	C336.625366,426.656311 337.052032,425.738251 337.272949,425.044556 
z"/>
<path fill="#0B5C8F" opacity="1.000000" stroke="none" 
	d="
M378.762726,317.018036 
	C376.769928,318.554352 374.830170,318.815430 372.745758,317.067108 
	C368.958221,313.890320 365.091858,310.807434 361.371246,307.167969 
	C362.869904,304.716431 364.336304,302.834167 365.622559,300.835907 
	C367.506561,297.909088 369.261505,294.899139 371.071411,291.924622 
	C374.145264,295.793274 379.211609,298.369965 379.120087,305.161102 
	C379.014923,309.684296 378.888824,313.351166 378.762726,317.018036 
z"/>
<path fill="#2B9F90" opacity="1.000000" stroke="none" 
	d="
M340.086731,279.365784 
	C343.526917,275.356567 347.107758,271.660156 351.080872,267.888184 
	C354.190613,271.028473 356.908081,274.244324 359.585602,278.007996 
	C353.419586,281.083313 351.324707,287.073029 347.996368,292.003387 
	C345.406708,287.895142 342.817047,283.786865 340.086731,279.365784 
z"/>
<path fill="#16748E" opacity="1.000000" stroke="none" 
	d="
M370.923462,291.631531 
	C369.261505,294.899139 367.506561,297.909088 365.622559,300.835907 
	C364.336304,302.834167 362.869904,304.716431 361.206665,306.878510 
	C358.292450,304.366882 355.655579,301.627350 353.150085,298.248322 
	C357.563171,293.697083 361.844879,289.785339 366.126617,285.873596 
	C367.676239,287.695190 369.225891,289.516815 370.923462,291.631531 
z"/>
<path fill="#218B90" opacity="1.000000" stroke="none" 
	d="
M365.944244,285.596069 
	C361.844879,289.785339 357.563171,293.697083 353.094147,297.917664 
	C351.353912,296.355957 349.801025,294.485413 348.122253,292.309143 
	C351.324707,287.073029 353.419586,281.083313 359.755554,278.296234 
	C361.897583,280.463959 363.829712,282.891235 365.944244,285.596069 
z"/>
<path fill="#7023BB" opacity="1.000000" stroke="none" 
	d="
M378.811859,317.477875 
	C378.888824,313.351166 379.014923,309.684296 379.154083,305.566345 
	C379.545319,305.067902 379.923462,305.020538 380.634766,305.331116 
	C381.101562,307.295471 381.235229,308.901855 381.387451,310.731506 
	C383.048920,309.139862 384.100616,308.132355 385.152344,307.124878 
	C386.060516,308.513367 387.241364,309.800537 387.805359,311.317047 
	C388.456177,313.067047 388.562897,315.019409 388.905884,316.883881 
	C388.943359,318.037781 388.980835,319.191650 389.043549,320.780304 
	C385.962219,324.085938 382.855652,326.956787 379.447754,329.963196 
	C379.051239,326.045044 378.956116,321.991394 378.811859,317.477875 
z"/>
<path fill="#8721C4" opacity="1.000000" stroke="none" 
	d="
M388.928528,316.428406 
	C388.562897,315.019409 388.456177,313.067047 387.805359,311.317047 
	C387.241364,309.800537 386.060516,308.513367 385.152344,307.124878 
	C384.100616,308.132355 383.048920,309.139862 381.387451,310.731506 
	C381.235229,308.901855 381.101562,307.295471 380.915771,305.272064 
	C380.945526,301.913086 381.027435,298.971161 381.098206,295.594788 
	C381.482452,295.080933 381.877808,295.001465 382.565369,294.847412 
	C382.857544,295.955994 382.857544,297.139191 382.857544,297.539734 
	C385.183960,297.989441 386.807007,298.303192 388.693970,298.806305 
	C388.955627,304.654755 388.953400,310.313812 388.928528,316.428406 
z"/>
<path fill="#43B15B" opacity="1.000000" stroke="none" 
	d="
M354.884125,310.020996 
	C358.200775,312.121216 361.517426,314.221436 364.697540,316.666321 
	C362.251038,319.490356 358.670593,320.963318 358.746155,325.329437 
	C358.760956,326.185333 356.463196,327.081268 355.024963,327.673950 
	C352.035217,324.915344 349.252502,322.441589 346.633057,319.686523 
	C349.485748,316.271515 350.078400,311.330719 354.884125,310.020996 
z"/>
<path fill="#29A268" opacity="1.000000" stroke="none" 
	d="
M355.231995,327.958740 
	C356.463196,327.081268 358.760956,326.185333 358.746155,325.329437 
	C358.670593,320.963318 362.251038,319.490356 364.928650,316.922485 
	C367.171967,317.964111 369.047668,319.094238 370.974670,320.986389 
	C370.214386,325.303131 369.402863,328.857880 368.936310,330.901398 
	C366.143402,332.359528 364.530579,333.201569 362.917725,334.043610 
	C362.451904,333.748322 361.986084,333.453033 361.082397,332.789917 
	C358.840363,330.934296 357.036163,329.446533 355.231995,327.958740 
z"/>
<path fill="#5FC04A" opacity="1.000000" stroke="none" 
	d="
M354.706970,309.737427 
	C350.078400,311.330719 349.485748,316.271515 346.371948,319.523132 
	C345.768219,319.541992 345.588898,319.442932 345.409607,319.343872 
	C343.287903,316.800964 341.166168,314.258057 339.055054,311.309418 
	C339.065643,310.903687 339.164886,310.776398 339.303345,310.727417 
	C339.441772,310.678467 339.442780,310.289856 339.442780,310.289856 
	C339.442780,310.289856 339.063721,310.077576 339.031067,310.039795 
	C338.998444,310.002045 338.932404,309.927185 338.932404,309.927185 
	C340.255798,307.830170 341.579163,305.733154 342.966187,303.294739 
	C346.863190,305.120178 350.696503,307.286987 354.706970,309.737427 
z"/>
<path fill="#1E9C6D" opacity="1.000000" stroke="none" 
	d="
M362.997986,334.399567 
	C364.530579,333.201569 366.143402,332.359528 368.936310,330.901398 
	C369.402863,328.857880 370.214386,325.303131 371.048706,321.316284 
	C377.288452,322.392365 378.301514,324.012634 377.136047,330.930725 
	C376.499969,332.306885 375.825806,333.275177 374.758667,334.686279 
	C373.246796,336.385284 372.127869,337.641541 371.008972,338.897797 
	C368.365417,337.517059 365.721832,336.136292 362.997986,334.399567 
z"/>
<path fill="#110D9C" opacity="1.000000" stroke="none" 
	d="
M399.135376,438.942139 
	C399.090271,438.961456 399.180511,438.922882 399.135376,438.942139 
z"/>
<path fill="#A526C8" opacity="1.000000" stroke="none" 
	d="
M371.356964,338.991730 
	C372.127869,337.641541 373.246796,336.385284 374.694000,335.004639 
	C381.103424,331.242249 387.073090,327.399872 393.289307,324.009613 
	C405.465118,317.369019 418.492157,314.043243 432.439331,314.997650 
	C433.865601,315.095245 435.248047,315.833527 436.851837,316.617859 
	C434.869385,319.063507 433.026917,322.266693 430.440430,323.067871 
	C421.631409,325.796539 415.031189,331.840485 407.667999,336.765839 
	C406.232971,337.725769 404.505859,338.239868 402.947296,339.026672 
	C401.212799,339.902222 398.797577,340.429962 397.953156,341.861053 
	C396.158936,344.901886 393.705231,345.182281 390.366760,345.009644 
	C388.282593,345.002625 386.616913,344.969635 384.538635,344.930969 
	C381.403290,343.670288 378.675690,342.425537 375.959686,341.156006 
	C374.531006,340.488220 373.122559,339.777191 371.356964,338.991730 
z"/>
<path fill="#1FACD7" opacity="1.000000" stroke="none" 
	d="
M323.490662,493.918396 
	C323.820648,497.091187 323.910309,500.627899 323.952515,504.634705 
	C323.686859,501.497314 323.468628,497.889801 323.490662,493.918396 
z"/>
<path fill="#A526C8" opacity="1.000000" stroke="none" 
	d="
M300.991089,272.682007 
	C300.331940,271.931793 299.696930,270.806244 299.091492,269.312531 
	C299.752441,270.065125 300.383820,271.185913 300.991089,272.682007 
z"/>
<path fill="#073781" opacity="1.000000" stroke="none" 
	d="
M296.731476,262.721680 
	C296.200439,262.534393 295.633087,262.052460 295.048462,261.257141 
	C295.585846,261.438171 296.140533,261.932617 296.731476,262.721680 
z"/>
<path fill="#063782" opacity="1.000000" stroke="none" 
	d="
M197.007355,284.992310 
	C199.310333,284.854462 201.358932,285.032654 200.999313,288.601868 
	C201.000610,288.999359 201.000000,289.000000 200.999695,289.000122 
	C199.698502,287.890076 198.397629,286.779877 197.048370,285.334839 
	C197.000000,285.000000 197.007355,284.992310 197.007355,284.992310 
z"/>
<path fill="#063782" opacity="1.000000" stroke="none" 
	d="
M196.996185,285.003601 
	C196.483688,284.701477 195.975006,284.395782 195.466309,284.090088 
	C195.648468,283.880432 195.830643,283.670776 196.012817,283.461121 
	C196.319260,283.782410 196.625717,284.103699 196.969757,284.708618 
	C197.007355,284.992310 197.000000,285.000000 196.996185,285.003601 
z"/>
<path fill="#8721C4" opacity="1.000000" stroke="none" 
	d="
M331.108521,302.449280 
	C330.456207,302.350006 329.786835,301.914978 329.142029,301.122894 
	C329.808228,301.215088 330.449829,301.664276 331.108521,302.449280 
z"/>
<path fill="#5FC04A" opacity="1.000000" stroke="none" 
	d="
M339.013672,310.965424 
	C338.413818,310.849243 337.865967,310.671295 337.283905,310.204529 
	C337.624023,309.919556 337.998322,309.923401 338.652527,309.927216 
	C338.932404,309.927185 338.998444,310.002045 339.042419,310.216034 
	C339.086365,310.430023 339.164886,310.776398 339.164886,310.776398 
	C339.164886,310.776398 339.065643,310.903687 339.013672,310.965424 
z"/>
<path fill="#16748E" opacity="1.000000" stroke="none" 
	d="
M304.547241,324.467834 
	C304.579315,324.521698 304.515137,324.413940 304.547241,324.467834 
z"/>
<path fill="#5D22B9" opacity="1.000000" stroke="none" 
	d="
M345.195831,319.683044 
	C345.588898,319.442932 345.768219,319.541992 346.208618,319.804413 
	C349.252502,322.441589 352.035217,324.915344 355.024963,327.673950 
	C357.036163,329.446533 358.840363,330.934296 360.813904,332.714600 
	C357.455597,335.359039 353.881134,337.644165 350.410736,340.077759 
	C344.478790,344.237427 344.506165,344.276489 343.220459,348.970215 
	C339.565552,344.648468 336.224609,340.290283 332.864594,335.566956 
	C332.519623,333.391541 332.193695,331.581299 332.007660,330.548096 
	C336.384094,326.997559 340.683075,323.509888 345.195831,319.683044 
z"/>
<path fill="#84D639" opacity="1.000000" stroke="none" 
	d="
M339.303345,310.727417 
	C339.164886,310.776398 339.086365,310.430023 339.075043,310.253784 
	C339.063721,310.077576 339.442780,310.289856 339.442780,310.289856 
	C339.442780,310.289856 339.441772,310.678467 339.303345,310.727417 
z"/>
</svg>